<?xml version="1.0" standalone="no"?>
<!DOCTYPE svg PUBLIC "-//W3C//DTD SVG 1.1//EN" "http://www.w3.org/Graphics/SVG/1.1/DTD/svg11.dtd" >
<svg xmlns="http://www.w3.org/2000/svg" xmlns:xlink="http://www.w3.org/1999/xlink" version="1.1">
<metadata>
Created by FontForge 20170924 at Fri Nov 18 23:28:54 1927
 By www-data
Grinya Soft (c)
</metadata>
<defs>
<font id="FreeSet-Bold" horiz-adv-x="608" >
  <font-face 
    font-family="FreeSet"
    font-weight="400"
    font-stretch="normal"
    units-per-em="1000"
    panose-1="0 0 0 0 0 0 0 0 0 0"
    ascent="800"
    descent="-200"
    x-height="518"
    cap-height="700"
    bbox="-20 -291 1171 913"
    underline-thickness="20"
    underline-position="-143"
    unicode-range="U+0020-2122"
  />
<missing-glyph horiz-adv-x="800" 
d="M50 0v800h700v-800h-700zM700 50v700h-600v-700h600z" />
    <glyph glyph-name=".notdef" horiz-adv-x="800" 
d="M50 0v800h700v-800h-700zM700 50v700h-600v-700h600z" />
    <glyph glyph-name=".null" horiz-adv-x="0" 
 />
    <glyph glyph-name="nonmarkingreturn" horiz-adv-x="351" 
 />
    <glyph glyph-name="space" unicode=" " horiz-adv-x="351" 
 />
    <glyph glyph-name="exclam" unicode="!" horiz-adv-x="283" 
d="M71 134h142v-134h-142v134zM70 700h143l-15 -491h-112z" />
    <glyph glyph-name="quotedbl" unicode="&#x22;" horiz-adv-x="474" 
d="M60 700h137l-24 -259h-89zM277 700h137l-24 -260h-89z" />
    <glyph glyph-name="numbersign" unicode="#" horiz-adv-x="721" 
d="M465 42h-79l27 154h-164l-26 -154h-80l27 154h-114l15 72h113l30 178h-113l15 72h113l27 154h79l-26 -154h163l26 154h80l-27 -154h114l-15 -72h-114l-30 -178h114l-15 -72h-113zM427 268l30 178h-163l-30 -178h163z" />
    <glyph glyph-name="dollar" unicode="$" horiz-adv-x="583" 
d="M57 27l15 122q41 -18 86.5 -28.5t91.5 -10.5v195l-23 11q-84 41 -115 67q-62 52 -62 128q0 82 57.5 137.5t142.5 55.5v70h80v-66q80 0 164 -28l-15 -112q-37 16 -71.5 23.5t-77.5 7.5v-178l29 -12q96 -40 137 -90q37 -46 37 -111q0 -97 -69 -154q-54 -45 -134 -56v-70
h-80v64q-52 0 -98.5 8.5t-94.5 26.5zM325 268v-145q27 8 45 27t18 41q0 21 -10 37q-15 25 -53 40zM255 451v140q-29 -6 -46 -24.5t-17 -40.5t15 -42.5t48 -32.5z" />
    <glyph glyph-name="percent" unicode="%" horiz-adv-x="884" 
d="M226 708q79 0 122.5 -53.5t43.5 -141.5t-43.5 -141.5t-122.5 -53.5t-122.5 53.5t-43.5 141.5t43.5 141.5t122.5 53.5zM226 643q-34 0 -45 -41q-7 -25 -7 -89q0 -79 13 -104.5t39 -25.5q34 0 45 41q7 25 7 89q0 79 -13 104.5t-39 25.5zM623 727l76 -47l-436 -703l-75 50z
M658 382q79 0 122.5 -53.5t43.5 -141.5t-43.5 -141.5t-122.5 -53.5t-122.5 53.5t-43.5 141.5t43.5 141.5t122.5 53.5zM658 317q-34 0 -45 -41q-7 -25 -7 -89q0 -79 13 -104.5t39 -25.5q34 0 45 41q7 25 7 89q0 79 -13 104.5t-39 25.5z" />
    <glyph glyph-name="ampersand" unicode="&#x26;" horiz-adv-x="742" 
d="M538 0l-42 46q-45 -33 -92.5 -47t-113.5 -14q-123 0 -189 71q-56 61 -56 149q0 66 44 117q41 47 104 68q-34 37 -48 55q-38 51 -38 105q0 66 44 110q54 54 156 54q101 0 158 -47q53 -43 53 -112q0 -73 -57 -128q-35 -34 -83 -55l133 -149q15 22 26 53q17 49 17 103h123
q0 -95 -36 -169q-19 -39 -54 -79l115 -131h-164zM424 133l-159 176q-31 -13 -52 -35q-31 -32 -31 -75t29 -75q33 -36 87 -36q73 0 126 45zM287 474l22 -23q32 13 55 37q29 30 29 64q0 29 -23 47t-53 18q-31 0 -52.5 -16.5t-21.5 -43.5q0 -19 9 -37.5t35 -45.5z" />
    <glyph glyph-name="quotesingle" unicode="'" horiz-adv-x="257" 
d="M60 700h137l-24 -259h-89z" />
    <glyph glyph-name="parenleft" unicode="(" horiz-adv-x="377" 
d="M209 700h128q-77 -125 -113 -226q-40 -114 -40 -231q0 -120 39 -231q34 -98 114 -226h-128q-96 148 -132.5 249t-36.5 208t36.5 207.5t132.5 249.5z" />
    <glyph glyph-name="parenright" unicode=")" horiz-adv-x="377" 
d="M40 700h128q96 -148 132.5 -249t36.5 -208t-36.5 -207.5t-132.5 -249.5h-128q77 125 113 226q40 114 40 231q0 120 -39 231q-34 98 -114 226z" />
    <glyph glyph-name="asterisk" unicode="*" horiz-adv-x="483" 
d="M173 343l-123 59l45 77l111 -77l-10 136h90l-11 -136l113 77l45 -77l-123 -59l123 -60l-45 -77l-113 77l11 -136h-90l10 136l-111 -77l-45 77z" />
    <glyph glyph-name="plus" unicode="+" 
d="M45 304v90h214v214h90v-214h214v-90h-214v-214h-90v214h-214z" />
    <glyph glyph-name="comma" unicode="," horiz-adv-x="287" 
d="M97 135h140l-69 -250h-118z" />
    <glyph glyph-name="hyphen" unicode="-" horiz-adv-x="523" 
d="M60 351h403v-117h-403v117z" />
    <glyph glyph-name="period" unicode="." horiz-adv-x="260" 
d="M200 142v-142h-140v142h140z" />
    <glyph glyph-name="slash" unicode="/" horiz-adv-x="624" 
d="M30 -258l488 1050l76 -33l-491 -1050z" />
    <glyph glyph-name="zero" unicode="0" horiz-adv-x="594" 
d="M297 708q103 0 161 -55q91 -86 91 -303t-90 -302q-59 -56 -162 -56t-161 55q-91 86 -91 303t90 302q59 56 162 56zM297 598q-66 0 -91 -87q-16 -56 -16 -161q0 -107 15 -160q25 -88 92 -88q66 0 91 87q16 56 16 161q0 107 -15 160q-25 88 -92 88z" />
    <glyph glyph-name="one" unicode="1" horiz-adv-x="429" 
d="M231 700h128v-700h-142v547l-39 -35l-81 -70l-67 83z" />
    <glyph glyph-name="two" unicode="2" horiz-adv-x="573" 
d="M72 543l-12 114q64 29 127 42q45 9 85 9q127 0 187 -67q44 -49 44 -117q0 -96 -96 -221q-79 -103 -194 -190l1 -3l68 5h241v-115h-473v116q173 154 242 247q61 82 61 143q0 44 -33 67t-86 23q-34 0 -79 -15.5t-83 -37.5z" />
    <glyph glyph-name="three" unicode="3" horiz-adv-x="577" 
d="M74 567l-8 114q97 27 190 27q143 0 207 -66q44 -46 44 -109t-34 -108t-96 -54q65 -14 100 -61.5t35 -106.5q0 -82 -62 -139q-78 -72 -228 -72q-48 0 -90.5 8.5t-81.5 20.5l7 118q40 -17 84 -27t82 -10q73 0 109 34q30 28 30 71q0 58 -50 83q-37 18 -103 18h-72v110h65
q87 0 124 29q31 24 31 72q0 34 -26 54q-32 25 -97 25q-32 0 -54 -3q-52 -7 -106 -28z" />
    <glyph glyph-name="four" unicode="4" horiz-adv-x="616" 
d="M304 700h183v-451h89v-110h-89v-139h-142v139h-305v120zM345 249v233l2 77l-147 -261l-30 -48l51 -1h124z" />
    <glyph glyph-name="five" unicode="5" horiz-adv-x="577" 
d="M77 700h412v-110h-270v-139q24 3 48 3q104 0 169 -52q76 -61 76 -178q0 -93 -60 -156q-73 -76 -217 -76q-48 0 -86.5 5.5t-83.5 20.5l3 123q44 -19 80 -27t60 -8q82 0 122 39q32 32 32 81q0 46 -29 77q-38 41 -115 41q-34 0 -71 -4.5t-70 -15.5v376z" />
    <glyph glyph-name="six" unicode="6" horiz-adv-x="585" 
d="M496 685l-16 -113q-26 11 -60.5 18.5t-64.5 7.5q-100 0 -143 -79q-27 -50 -27 -120q27 34 53 49q35 20 84 20q92 0 151 -54q67 -62 67 -175q0 -110 -58 -175q-64 -72 -184 -72q-161 0 -219 127q-34 74 -34 212q0 157 53 250q43 76 119 106q52 21 126 21q50 0 81 -4.5
t72 -18.5zM294 358q-40 0 -65 -26q-31 -33 -31 -102q0 -70 30 -102q24 -26 66 -26q40 0 65 26q31 33 31 102q0 70 -30 102q-24 26 -66 26z" />
    <glyph glyph-name="seven" unicode="7" horiz-adv-x="517" 
d="M487 595l-256 -595h-159l270 590h-312v110h457v-105z" />
    <glyph glyph-name="eight" unicode="8" 
d="M179 367q-47 20 -75.5 60t-28.5 94q0 89 70 140q64 47 159 47q107 0 170 -50q59 -47 59 -124q0 -56 -29 -97.5t-80 -59.5q57 -20 91 -63q38 -48 38 -114q0 -103 -81 -160q-69 -48 -168 -48q-97 0 -164 43q-85 55 -85 163q0 56 31.5 102.5t92.5 66.5zM314 422q36 13 60 42
t24 58q0 35 -26.5 57t-67.5 22q-38 0 -66 -21.5t-28 -57.5t34 -63q21 -17 70 -37zM291 309q-44 -20 -67.5 -48.5t-23.5 -65.5q0 -41 29 -67t75 -26q50 0 77 27t27 66q0 37 -31 65.5t-86 48.5z" />
    <glyph glyph-name="nine" unicode="9" horiz-adv-x="585" 
d="M89 15l16 113q27 -11 61 -18.5t64 -7.5q100 0 143 79q27 50 27 120q-27 -34 -53 -49q-35 -20 -84 -20q-92 0 -151 54q-67 62 -67 175q0 110 58 175q64 72 184 72q161 0 219 -127q34 -74 34 -212q0 -157 -53 -250q-43 -76 -119 -106q-52 -21 -126 -21q-50 0 -81 4.5
t-72 18.5zM291 342q40 0 65 26q31 33 31 102q0 70 -30 102q-24 26 -66 26q-40 0 -65 -26q-31 -33 -31 -102q0 -70 30 -102q24 -26 66 -26z" />
    <glyph glyph-name="colon" unicode=":" horiz-adv-x="260" 
d="M200 518v-142h-140v142h140zM200 142v-142h-140v142h140z" />
    <glyph glyph-name="semicolon" unicode=";" horiz-adv-x="287" 
d="M228 518v-142h-140v142h140zM97 135h140l-69 -250h-118z" />
    <glyph glyph-name="less" unicode="&#x3c;" horiz-adv-x="672" 
d="M56 358l535 293v-106l-341 -189l341 -189v-106z" />
    <glyph glyph-name="equal" unicode="=" horiz-adv-x="639" 
d="M60 209v90h518v-90h-518zM61 489h518v-90h-518v90z" />
    <glyph glyph-name="greater" unicode="&#x3e;" horiz-adv-x="672" 
d="M616 358l-535 -297v106l341 189l-341 189v106z" />
    <glyph glyph-name="question" unicode="?" horiz-adv-x="528" 
d="M180 199v20q0 51 19 88.5t72 100.5q29 35 38 49q19 31 19 59q0 37 -20 58q-24 26 -78 26q-42 0 -87 -9.5t-83 -27.5l-10 114q45 16 96.5 24t98.5 8q125 0 186 -59q47 -45 47 -110q0 -58 -28 -108q-21 -37 -70 -87q-35 -35 -47 -53q-23 -34 -23 -73v-20h-130zM175 124h140
v-124h-140v124z" />
    <glyph glyph-name="at" unicode="@" horiz-adv-x="790" 
d="M584 517l-31 -218q-3 -22 9 -35q9 -9 21 -9q31 0 58 35q31 41 31 102q0 114 -82 181q-76 62 -187 62q-123 0 -206 -87q-79 -83 -79 -198q0 -114 78 -196q84 -89 217 -89q48 0 89 8.5t86 31.5l30 -67q-49 -25 -100 -35.5t-108 -10.5q-164 0 -268 110q-97 102 -97 248
q0 143 97 247q103 111 261 111q140 0 235 -77q107 -87 107 -239q0 -98 -52.5 -158t-121.5 -60q-38 0 -62 23t-24 61q-20 -32 -45 -49q-35 -24 -84 -24t-86 32q-45 39 -45 107q0 92 49 150.5t120 58.5q38 0 62.5 -17t38.5 -47l10 48h79zM473 358l1 33q0 34 -18.5 52.5
t-44.5 18.5q-36 0 -62 -37.5t-26 -98.5q0 -38 23 -57q17 -14 40 -14q27 0 51 23q29 28 36 80z" />
    <glyph glyph-name="A" unicode="A" horiz-adv-x="749" 
d="M294 700h162l278 -700h-160l-59 157h-289l-59 -157h-152zM271 273h202l-103 286z" />
    <glyph glyph-name="B" unicode="B" horiz-adv-x="626" 
d="M70 700h230q84 0 139 -25q94 -43 94 -148q0 -73 -41 -117q-28 -30 -73 -44q64 -11 105.5 -55.5t41.5 -113.5q0 -76 -49 -126q-70 -71 -226 -71h-221v700zM212 590v-174h69q63 0 90 33q19 23 19 54q0 33 -18 54q-29 33 -97 33h-63zM212 306v-196h79q60 0 92.5 26.5
t32.5 71.5q0 62 -52 85q-30 13 -73 13h-79z" />
    <glyph glyph-name="C" unicode="C" horiz-adv-x="630" 
d="M581 141l9 -119q-42 -14 -89 -22t-92 -8q-156 0 -256 89q-108 96 -108 265q0 166 104 264t286 98q43 0 80 -6t75 -18l-6 -120q-65 26 -139 26q-111 0 -180.5 -63.5t-69.5 -178.5q0 -123 78 -186q65 -52 162 -52q45 0 80 8.5t66 22.5z" />
    <glyph glyph-name="D" unicode="D" horiz-adv-x="717" 
d="M70 700h221q82 0 142 -15q103 -26 162 -93q77 -88 77 -242q0 -149 -73 -236q-58 -69 -157 -96q-66 -18 -151 -18h-221v700zM212 582v-464h81q113 0 171 63t58 169t-56 167q-59 65 -173 65h-81z" />
    <glyph glyph-name="E" unicode="E" horiz-adv-x="538" 
d="M70 700h418v-124h-276v-158h251v-115h-251v-179h276v-124h-418v700z" />
    <glyph glyph-name="F" unicode="F" horiz-adv-x="492" 
d="M70 700h392v-118h-250v-170h238v-115h-238v-297h-142v700z" />
    <glyph glyph-name="G" unicode="G" horiz-adv-x="729" 
d="M637 678l-8 -125q-48 22 -98 31.5t-102 9.5q-112 0 -175 -70q-59 -66 -59 -174q0 -107 57 -171q61 -69 171 -69q57 0 94 14v167h-143v110h285v-371q-66 -19 -126.5 -28.5t-118.5 -9.5q-175 0 -274 101q-95 97 -95 257q0 178 114 273q102 85 273 85q114 0 205 -30z" />
    <glyph glyph-name="H" unicode="H" horiz-adv-x="708" 
d="M70 700h142v-282h284v282h142v-700h-142v303h-284v-303h-142v700z" />
    <glyph glyph-name="I" unicode="I" horiz-adv-x="282" 
d="M70 0v700h142v-700h-142z" />
    <glyph glyph-name="J" unicode="J" horiz-adv-x="379" 
d="M167 700h142v-497q0 -89 -26 -136q-42 -75 -155 -75q-54 0 -108 13v114q22 -5 36 -7t32 -2q43 0 61 25t18 78v487z" />
    <glyph glyph-name="K" unicode="K" horiz-adv-x="662" 
d="M70 700h142v-299l256 299h169l-292 -317l310 -383h-180l-260 348l-3 -348h-142v700z" />
    <glyph glyph-name="L" unicode="L" horiz-adv-x="510" 
d="M70 700h142v-582h278v-118h-420v700z" />
    <glyph glyph-name="M" unicode="M" horiz-adv-x="965" 
d="M550 0h-135l-170 500l-32 100l-1 -108v-492h-142v700h240l140 -407l31 -124l34 124l140 407h240v-700h-142v492l2 108l-35 -100z" />
    <glyph glyph-name="N" unicode="N" horiz-adv-x="745" 
d="M70 700h184l242 -441l37 -95v124v412h142v-700h-184l-244 458l-35 78v-124v-412h-142v700z" />
    <glyph glyph-name="O" unicode="O" horiz-adv-x="776" 
d="M388 708q152 0 245 -91q98 -96 98 -267q0 -169 -98 -266q-93 -92 -245 -92t-245 91q-98 96 -98 267q0 169 98 266q93 92 245 92zM388 608q-75 0 -124 -46q-69 -65 -69 -212q0 -146 69 -211q50 -47 124 -47q75 0 124 46q69 65 69 212q0 146 -69 211q-50 47 -124 47z" />
    <glyph glyph-name="P" unicode="P" horiz-adv-x="586" 
d="M70 700h207q154 0 223 -84q46 -56 46 -135q0 -88 -59 -149q-67 -69 -184 -69h-91v-263h-142v700zM212 373h65q57 0 88 32t31 80q0 45 -26 72q-31 33 -93 33h-65v-217z" />
    <glyph glyph-name="Q" unicode="Q" horiz-adv-x="776" 
d="M527 -132l-129 124q-145 0 -239 78q-114 94 -114 280q0 169 98 266q93 92 245 92t245 -91q98 -96 98 -267q0 -96 -30 -167q-48 -114 -169 -164l163 -151h-168zM388 608q-75 0 -124 -46q-69 -65 -69 -212q0 -146 69 -211q50 -47 124 -47q75 0 124 46q69 65 69 212
q0 146 -69 211q-50 47 -124 47z" />
    <glyph glyph-name="R" unicode="R" horiz-adv-x="695" 
d="M100 700h248q133 0 191 -63q44 -48 44 -127q0 -72 -45 -116q-35 -34 -90 -47q26 -8 43 -27t30 -49l114 -271h-159l-90 222q-27 66 -90 66h-54v-288h-142v700zM242 590v-192h76q64 0 95 35q24 27 24 62q0 36 -20 60q-30 35 -99 35h-76z" />
    <glyph glyph-name="S" unicode="S" horiz-adv-x="552" 
d="M53 27l15 122q42 -19 88 -30.5t85 -11.5q51 0 81.5 24.5t30.5 59.5q0 46 -41 74q-8 6 -96.5 49.5t-120.5 77.5q-45 47 -45 119q0 69 38 120q57 77 182 77q60 0 122 -11q47 -8 78 -19l-15 -112q-36 15 -77 24.5t-76 9.5q-59 0 -86 -28q-19 -20 -19 -46q0 -39 32 -66
q20 -17 61 -34q75 -32 101 -47q53 -30 79 -68q32 -47 32 -115q0 -84 -61 -139q-71 -65 -206 -65q-53 0 -93 8.5t-89 26.5z" />
    <glyph glyph-name="T" unicode="T" horiz-adv-x="576" 
d="M15 700h546v-124h-202v-576h-142v576h-202v124z" />
    <glyph glyph-name="U" unicode="U" horiz-adv-x="724" 
d="M654 700v-434q0 -161 -103 -228q-70 -46 -187 -46q-120 0 -191 46q-103 67 -103 228v434h142v-434q0 -66 25 -106q37 -58 125 -58t125 58q25 40 25 106v434h142z" />
    <glyph glyph-name="V" unicode="V" horiz-adv-x="701" 
d="M20 700h152l151 -455l31 -108l32 108l153 455h142l-242 -700h-175z" />
    <glyph glyph-name="W" unicode="W" horiz-adv-x="1043" 
d="M880 700h143l-189 -700h-180l-107 455l-24 134l-24 -134l-103 -455h-183l-193 700h149l104 -418l30 -158l30 158l94 418h192l99 -418l29 -158l31 158z" />
    <glyph glyph-name="X" unicode="X" horiz-adv-x="699" 
d="M41 700h168l112 -195l32 -59l35 59l115 195h155l-213 -334l234 -366h-168l-134 222l-30 54l-33 -54l-139 -222h-155l234 366z" />
    <glyph glyph-name="Y" unicode="Y" horiz-adv-x="656" 
d="M2 700h164l144 -246l22 -48l27 48l145 246h150l-252 -416v-284h-142v286z" />
    <glyph glyph-name="Z" unicode="Z" horiz-adv-x="591" 
d="M530 578l-323 -454h334v-124h-491v119l326 459l-81 -2h-236v124h471v-122z" />
    <glyph glyph-name="bracketleft" unicode="[" horiz-adv-x="361" 
d="M311 752v-99h-116v-772h116v-99h-251v970h251z" />
    <glyph glyph-name="backslash" unicode="\" horiz-adv-x="638" 
d="M483 -254l-403 954l76 27l402 -953z" />
    <glyph glyph-name="bracketright" unicode="]" horiz-adv-x="361" 
d="M50 752h251v-970h-251v99h116v772h-116v99z" />
    <glyph glyph-name="asciicircum" unicode="^" horiz-adv-x="583" 
d="M290 495l237 -376h-116l-120 191l-119 -191h-116z" />
    <glyph glyph-name="underscore" unicode="_" horiz-adv-x="490" 
d="M0 -118h490v-90h-490v90z" />
    <glyph glyph-name="grave" unicode="`" horiz-adv-x="343" 
d="M54 733h140l88 -160h-83z" />
    <glyph glyph-name="a" unicode="a" horiz-adv-x="581" 
d="M97 385v107q48 19 92.5 26.5t97.5 7.5q143 0 197 -75q32 -45 32 -124v-327h-133v76q-27 -50 -84 -71q-36 -13 -80 -13q-95 0 -144 52q-40 43 -40 106q0 74 51 117q64 54 206 54h39l37 -1h12l-1 22q0 45 -33.5 67t-82.5 22q-41 0 -80.5 -10t-85.5 -36zM380 235h-23
q-82 0 -116 -9q-68 -18 -68 -75q0 -29 17 -46q21 -21 66 -21q54 0 86 30q38 36 38 108v13z" />
    <glyph glyph-name="b" unicode="b" 
d="M65 750h136v-217l-3 -85q23 37 61.5 57.5t89.5 20.5q110 0 170 -81q54 -73 54 -186q0 -132 -72 -205q-61 -62 -146 -62q-47 0 -85 16q-57 24 -84 82l-2 -90h-119v750zM201 259q0 -73 33 -116t82 -43t82 42.5t33 116.5q0 73 -33 116t-82 43t-82 -42.5t-33 -116.5z" />
    <glyph glyph-name="c" unicode="c" horiz-adv-x="463" 
d="M430 512l-8 -98q-19 8 -39 11t-45 3q-73 0 -117 -49t-44 -122q0 -76 42.5 -121.5t109.5 -45.5q27 0 54 5.5t50 15.5l5 -99q-26 -8 -62.5 -14t-70.5 -6q-136 0 -209 90q-61 75 -61 182q0 104 66 177q77 85 214 85q59 0 115 -14z" />
    <glyph glyph-name="d" unicode="d" horiz-adv-x="605" 
d="M407 750h136v-750h-119v90q-26 -45 -61 -68q-45 -30 -110 -30q-95 0 -154 66q-64 72 -64 201q0 124 67 198q63 69 157 69q55 0 95 -24q31 -18 54 -54l-1 85v217zM407 259q0 73 -33 116t-82 43t-82 -42.5t-33 -116.5q0 -73 33 -116t82 -43t82 42.5t33 116.5z" />
    <glyph glyph-name="e" unicode="e" horiz-adv-x="565" 
d="M530 218h-353q0 -57 41.5 -92.5t112.5 -35.5q81 0 162 36v-102q-41 -15 -88 -23.5t-91 -8.5q-117 0 -192 60q-87 70 -87 207q0 115 71 191t185 76q101 0 163 -59q76 -72 76 -218v-31zM177 311h213q0 57 -31 89t-76 32q-48 0 -77 -36t-29 -85z" />
    <glyph glyph-name="f" unicode="f" horiz-adv-x="405" 
d="M20 518h100v37q0 86 19 126q37 77 149 77q49 0 97 -12l-4 -95q-16 4 -30.5 5.5t-21.5 1.5q-47 0 -62 -29q-11 -22 -11 -81v-30h122v-100h-122v-418h-136v418h-100v100z" />
    <glyph glyph-name="g" unicode="g" horiz-adv-x="612" 
d="M90 -186l11 114q40 -20 81 -31.5t79 -11.5q69 0 109.5 35t40.5 104v68q-27 -58 -84 -81q-33 -13 -77 -13q-104 0 -162 78q-53 71 -53 181q0 125 64 197q59 67 149 67q55 0 99.5 -21.5t68.5 -68.5l3 87h128v-477q0 -102 -40 -164q-64 -99 -224 -99q-50 0 -96 8t-97 28z
M287 411q-51 0 -80.5 -42t-29.5 -109q0 -83 39 -122q32 -32 81 -32q51 0 82.5 43.5t31.5 120.5q0 62 -32 101.5t-92 39.5z" />
    <glyph glyph-name="h" unicode="h" horiz-adv-x="612" 
d="M65 0v750h136v-233l-5 -80q36 50 92 73q39 16 76 16q86 0 134.5 -47.5t48.5 -135.5v-343h-136v298q0 51 -13 77q-20 40 -75 40q-46 0 -79 -33q-43 -43 -43 -124v-258h-136z" />
    <glyph glyph-name="i" unicode="i" horiz-adv-x="270" 
d="M67 518h136v-518h-136v518zM205 735v-140h-140v140h140z" />
    <glyph glyph-name="j" unicode="j" horiz-adv-x="260" 
d="M198 518v-559q0 -78 -20 -115q-36 -67 -138 -67q-18 0 -33 2l-27 6v96q6 -2 15.5 -3t19.5 -1q28 0 37.5 18.5t9.5 58.5v564h136zM60 732h140v-126h-140v126z" />
    <glyph glyph-name="k" unicode="k" horiz-adv-x="552" 
d="M65 750h136v-447h5l162 215h156l-190 -235l208 -283h-166l-170 263h-5v-263h-136v750z" />
    <glyph glyph-name="l" unicode="l" horiz-adv-x="266" 
d="M65 750h136v-750h-136v750z" />
    <glyph glyph-name="m" unicode="m" horiz-adv-x="902" 
d="M201 0h-136v518h129v-88q22 46 64.5 71t97.5 25q42 0 72 -13q53 -23 70 -84q27 46 72 71.5t101 25.5q101 0 141 -71q25 -44 25 -110v-345h-136v291q0 54 -8 77q-16 47 -69 47q-45 0 -75 -35t-30 -94v-286h-136v291q0 57 -10 82q-17 42 -65 42q-45 0 -74 -32
q-33 -36 -33 -97v-286z" />
    <glyph glyph-name="n" unicode="n" horiz-adv-x="612" 
d="M201 0h-136v518h131v-81q36 52 91 74q37 15 76 15q78 0 128 -39q56 -44 56 -124v-363h-136v313q0 45 -21 72q-24 30 -67 30q-55 0 -88.5 -41t-33.5 -95v-279z" />
    <glyph glyph-name="o" unicode="o" horiz-adv-x="605" 
d="M35 259q0 121 71 194t197 73q125 0 196 -73t71 -194t-71 -194t-196 -73q-126 0 -197 73t-71 194zM177 259q0 -81 35 -125t91 -44q53 0 89 44.5t36 124.5q0 79 -35.5 124t-89.5 45q-55 0 -90.5 -44.5t-35.5 -124.5z" />
    <glyph glyph-name="p" unicode="p" 
d="M201 -214h-136v732h119v-90q27 45 69 70q46 28 102 28q101 0 159.5 -69t58.5 -198q0 -140 -74 -210q-60 -57 -150 -57q-55 0 -95 24q-31 19 -54 54l1 -85v-199zM201 259q0 -73 33 -116t82 -43t82 42.5t33 116.5q0 73 -33 116t-82 43t-82 -42.5t-33 -116.5z" />
    <glyph glyph-name="q" unicode="q" 
d="M407 -213v199l3 85q-29 -42 -66 -60.5t-85 -18.5q-90 0 -150 57q-74 71 -74 211q0 123 59.5 194.5t158.5 71.5q63 0 108 -29q38 -24 61 -68l2 89h119v-731h-136zM407 259q0 73 -33 116t-82 43t-82 -42.5t-33 -116.5q0 -73 33 -116t82 -43t82 42.5t33 116.5z" />
    <glyph glyph-name="r" unicode="r" horiz-adv-x="396" 
d="M65 518h124v-112q13 55 50.5 87.5t91.5 32.5q9 0 22.5 -2t22.5 -4l-5 -99l-44 3q-46 0 -78 -30q-48 -45 -48 -145v-249h-136v518z" />
    <glyph glyph-name="s" unicode="s" horiz-adv-x="454" 
d="M404 504l-12 -98q-29 11 -59 18t-59 7q-52 0 -75 -20q-16 -14 -16 -34q0 -31 35 -48q9 -4 44 -16q65 -20 95 -43q57 -43 57 -118q0 -85 -70 -127q-55 -33 -132 -33q-40 0 -87.5 8.5t-84.5 21.5l6 106q35 -15 74.5 -25t71.5 -10q44 0 65 16.5t21 39.5q0 29 -28 47
q-13 8 -62 26q-87 32 -115 69q-24 32 -24 82q0 62 41 103q50 50 148 50q44 0 86.5 -5.5t79.5 -16.5z" />
    <glyph glyph-name="t" unicode="t" horiz-adv-x="396" 
d="M112 418h-102v100h102v103l136 43v-146h120v-100h-120v-235q0 -48 9 -65q14 -26 58 -26q17 0 28 2t25 7v-96q-22 -5 -50.5 -9t-54.5 -4q-91 0 -128 61q-23 38 -23 99v266z" />
    <glyph glyph-name="u" unicode="u" horiz-adv-x="612" 
d="M411 518h136v-518h-131v81q-36 -52 -91 -74q-37 -15 -76 -15q-90 0 -137 49t-47 142v335h136v-313q0 -39 11 -61q20 -41 77 -41q53 0 87.5 40.5t34.5 100.5v274z" />
    <glyph glyph-name="v" unicode="v" horiz-adv-x="565" 
d="M10 518h149l109 -320l21 -76l22 76l105 320h139l-191 -518h-160z" />
    <glyph glyph-name="w" unicode="w" horiz-adv-x="909" 
d="M10 518h145l86 -287l26 -106l26 109l85 284h161l88 -287l26 -107l27 108l82 286h137l-170 -518h-161l-95 322l-20 86l-21 -85l-90 -323h-161z" />
    <glyph glyph-name="x" unicode="x" horiz-adv-x="567" 
d="M25 518h162l72 -121l30 -59l34 61l68 119h151l-159 -251l174 -267h-162l-86 138l-31 58l-35 -60l-82 -136h-151l174 267z" />
    <glyph glyph-name="y" unicode="y" horiz-adv-x="551" 
d="M3 518h150l97 -286l29 -99h5l32 103l94 282h138l-219 -581q-29 -76 -59 -106q-52 -52 -153 -52q-21 0 -40 3.5t-39 10.5l10 101q27 -11 53 -11q37 0 59 13t35 45l12 30z" />
    <glyph glyph-name="z" unicode="z" horiz-adv-x="537" 
d="M63 518h414v-100l-221 -265l-46 -50l277 -3v-100h-437v103l230 264l45 48l-262 3v100z" />
    <glyph glyph-name="braceleft" unicode="{" horiz-adv-x="444" 
d="M30 217v100h22q51 0 72 37q14 25 14 70v137q0 85 30 125q50 66 190 66h22l4 -99h-11q-69 0 -91 -35q-14 -22 -14 -78v-97q0 -65 -12 -97q-19 -52 -74 -70l-18 -6v-6l18 -6q54 -18 73 -69q13 -35 13 -98v-97q0 -75 35 -99q21 -14 70 -14h11l-4 -99h-22q-139 0 -189 66
q-31 41 -31 125v137q0 44 -14 69q-21 38 -72 38h-22z" />
    <glyph glyph-name="bar" unicode="|" horiz-adv-x="210" 
d="M60 -280v1053h90v-1053h-90z" />
    <glyph glyph-name="braceright" unicode="}" horiz-adv-x="444" 
d="M414 317v-100h-22q-51 0 -72 -37q-14 -25 -14 -70v-137q0 -85 -30 -125q-50 -66 -190 -66h-22l-4 99h11q69 0 91 35q14 22 14 78v97q0 65 12 97q19 52 74 70l18 6v6l-18 6q-54 18 -73 69q-13 35 -13 98v97q0 70 -25.5 91.5t-79.5 21.5h-11l4 99h22q139 0 189 -66
q31 -41 31 -125v-137q0 -44 14 -69q21 -38 72 -38h22z" />
    <glyph glyph-name="asciitilde" unicode="~" horiz-adv-x="602" 
d="M482 353l60 -45q-35 -51 -60 -71q-37 -30 -87 -30q-32 0 -66 11q-15 5 -53 22q-9 4 -24 10q-25 10 -43 10q-23 0 -47.5 -12t-41.5 -38l-60 45q30 48 60 71q38 30 87 30q34 0 67 -11q19 -6 66 -28q31 -14 53 -14q23 0 47.5 12t41.5 38z" />
    <glyph glyph-name="c128" horiz-adv-x="785" 
d="M20 700h552v-124h-233v-176q42 26 86 37.5t95 11.5q112 0 168 -60q52 -56 52 -160q0 -138 -63 -193q-50 -44 -157 -44q-49 0 -90 8l10 107q12 -4 29 -7t40 -3q33 0 53 20q32 31 32 107q0 71 -41 98q-26 17 -70 17q-25 0 -38.5 -2.5t-35.5 -10.5q-38 -14 -43.5 -16.5
t-26.5 -15.5v-294h-142v576h-177v124z" />
    <glyph glyph-name="c129" horiz-adv-x="510" 
d="M70 700h430v-124h-288v-576h-142v700z" />
    <glyph glyph-name="quotesinglbase" unicode="&#x201a;" horiz-adv-x="287" 
d="M97 135h140l-69 -250h-118z" />
    <glyph glyph-name="florin" unicode="&#x192;" horiz-adv-x="436" 
d="M65 518h361v-105h-225v-413h-136v518z" />
    <glyph glyph-name="quotedblbase" unicode="&#x201e;" horiz-adv-x="549" 
d="M107 135h142l-69 -250h-120zM347 135h142l-69 -250h-120z" />
    <glyph glyph-name="ellipsis" unicode="&#x2026;" horiz-adv-x="735" 
d="M50 145h145v-145h-145v145zM295 145h145v-145h-145v145zM540 145h145v-145h-145v145z" />
    <glyph glyph-name="dagger" unicode="&#x2020;" horiz-adv-x="656" 
d="M258 -214v546h-228v140h228v228h140v-228h228v-140h-228v-546h-140z" />
    <glyph glyph-name="daggerdbl" unicode="&#x2021;" horiz-adv-x="1000" 
 />
    <glyph glyph-name="circumflex" unicode="&#x2c6;" horiz-adv-x="1000" 
 />
    <glyph glyph-name="perthousand" unicode="&#x2030;" horiz-adv-x="1196" 
d="M588 727l76 -47l-436 -703l-75 50zM191 708q79 0 122.5 -53.5t43.5 -141.5t-43.5 -141.5t-122.5 -53.5t-122.5 53.5t-43.5 141.5t43.5 141.5t122.5 53.5zM191 643q-34 0 -45 -41q-7 -25 -7 -89q0 -79 13 -104.5t39 -25.5q34 0 45 41q7 25 7 89q0 79 -13 104.5t-39 25.5z
M623 382q79 0 122.5 -53.5t43.5 -141.5t-43.5 -141.5t-122.5 -53.5t-122.5 53.5t-43.5 141.5t43.5 141.5t122.5 53.5zM623 317q-34 0 -45 -41q-7 -25 -7 -89q0 -79 13 -104.5t39 -25.5q34 0 45 41q7 25 7 89q0 79 -13 104.5t-39 25.5zM1005 382q79 0 122.5 -53.5
t43.5 -141.5t-43.5 -141.5t-122.5 -53.5t-122.5 53.5t-43.5 141.5t43.5 141.5t122.5 53.5zM1005 317q-34 0 -45 -41q-7 -25 -7 -89q0 -79 13 -104.5t39 -25.5q34 0 45 41q7 25 7 89q0 79 -13 104.5t-39 25.5z" />
    <glyph glyph-name="Scaron" unicode="&#x160;" horiz-adv-x="1015" 
d="M149 700h465v-262h98q136 0 203 -69q55 -56 55 -143q0 -99 -61 -159q-69 -67 -201 -67h-236v585h-185v-149q0 -166 -9 -234q-14 -105 -56 -154q-48 -56 -144 -56q-18 0 -30 1.5t-38 6.5l6 111q9 -2 22 -3.5t16 -1.5q58 0 80 77q16 56 16 171v15v13v12q0 20 -0.5 39.5
t-0.5 38.5v228zM614 328v-218h94q54 0 85.5 30.5t31.5 78.5q0 55 -38 84q-33 25 -90 25h-83z" />
    <glyph glyph-name="guilsinglleft" unicode="&#x2039;" horiz-adv-x="323" 
d="M156 518h127l-110 -203l110 -211h-127l-116 211z" />
    <glyph glyph-name="OE" unicode="&#x152;" horiz-adv-x="1039" 
d="M638 700v-272h98q128 0 196 -59q62 -54 62 -143q0 -90 -50 -148q-68 -78 -212 -78h-236v313h-284v-313h-142v700h142v-272h284v272h142zM638 318v-208h94q54 0 85.5 30.5t31.5 78.5q0 50 -36 74.5t-92 24.5h-83z" />
    <glyph glyph-name="c141" horiz-adv-x="662" 
d="M70 700h142v-299l256 299h169l-292 -317l310 -383h-180l-260 348l-3 -348h-142v700z" />
    <glyph glyph-name="c142" horiz-adv-x="792" 
d="M20 700h550v-124h-232v-174q45 23 95.5 37.5t101.5 14.5q94 0 148 -42q59 -46 59 -134v-278h-142v238q0 61 -39 87q-29 19 -72 19q-35 0 -74.5 -12t-76.5 -35v-297h-142v576h-176v124z" />
    <glyph glyph-name="c143" horiz-adv-x="701" 
d="M70 0v700h142v-585h277v585h142v-700h-210v-135h-141v135h-210z" />
    <glyph glyph-name="c144" horiz-adv-x="666" 
d="M113 748h136v-71h218v-85h-218v-68l-2 -82q32 49 79 69q35 15 79 15q117 0 164 -90q37 -70 37 -206q0 -176 -37 -269q-47 -119 -175 -179l-58 105q89 37 115 135q15 56 15 202q0 112 -26.5 152.5t-76.5 40.5q-47 0 -80.5 -36.5t-33.5 -98.5v-282h-136v592h-83v85h83v71z
" />
    <glyph glyph-name="quoteleft" unicode="&#x2018;" horiz-adv-x="287" 
d="M60 585l47 250h120l-25 -250h-142z" />
    <glyph glyph-name="quoteright" unicode="&#x2019;" horiz-adv-x="289" 
d="M97 700h142l-69 -250h-120z" />
    <glyph glyph-name="quotedblleft" unicode="&#x201c;" horiz-adv-x="527" 
d="M60 585l47 250h120l-25 -250h-142zM300 585l47 250h120l-25 -250h-142z" />
    <glyph glyph-name="quotedblright" unicode="&#x201d;" horiz-adv-x="549" 
d="M107 700h142l-69 -250h-120zM347 700h142l-69 -250h-120z" />
    <glyph glyph-name="bullet" unicode="&#x2022;" horiz-adv-x="403" 
d="M30 350q0 75 52.5 123.5t119.5 48.5q74 0 124 -54q47 -51 47 -118t-46 -117q-50 -54 -125 -54q-67 0 -118 47q-54 50 -54 124z" />
    <glyph glyph-name="endash" unicode="&#x2013;" horiz-adv-x="580" 
d="M45 392h490v-90h-490v90z" />
    <glyph glyph-name="emdash" unicode="&#x2014;" horiz-adv-x="852" 
d="M40 321h772v-91h-772v91z" />
    <glyph glyph-name="tilde" unicode="&#x2dc;" horiz-adv-x="1000" 
 />
    <glyph glyph-name="trademark" unicode="&#x2122;" horiz-adv-x="991" 
d="M60 700h331v-72h-117v-301h-98v301h-116v72zM739 327h-92l-74 219l-19 60l-1 -67v-212h-98v373h137l77 -213l21 -66h6l21 66l77 213h137v-373h-98v212l2 67l-22 -60z" />
    <glyph glyph-name="scaron" unicode="&#x161;" horiz-adv-x="861" 
d="M108 518h417v-184h117q107 0 159 -58q40 -44 40 -109q0 -70 -44 -114q-52 -53 -154 -53h-254v418h-160v-115q0 -171 -31 -236q-36 -75 -135 -75q-19 0 -30 1t-28 7l6 104q18 -6 32 -6q54 0 62 93q3 33 3 112v215zM525 244v-154h86q53 0 77 26q18 20 18 51q0 40 -26 58.5
t-71 18.5h-84z" />
    <glyph glyph-name="guilsinglright" unicode="&#x203a;" horiz-adv-x="323" 
d="M167 518l116 -203l-116 -211h-127l110 211l-110 203h127z" />
    <glyph glyph-name="oe" unicode="&#x153;" horiz-adv-x="884" 
d="M412 518h136v-184h117q107 0 159 -58q40 -44 40 -109q0 -70 -44 -114q-52 -53 -154 -53h-254v234h-216v-234h-136v518h136v-184h216v184zM548 244v-154h86q53 0 77 26q18 20 18 51q0 40 -26 58.5t-71 18.5h-84z" />
    <glyph glyph-name="c157" horiz-adv-x="556" 
d="M65 518h136v-235h5l166 235h152l-192 -245l219 -273h-171l-174 248h-5v-248h-136v518z" />
    <glyph glyph-name="c158" horiz-adv-x="655" 
d="M113 0v592h-83v85h83v73h136v-73h218v-85h-218v-75l-5 -80q36 52 91 74q37 15 76 15q78 0 128 -39q56 -44 56 -124v-363h-136v313q0 53 -30 80q-25 22 -64 22q-49 0 -82.5 -37.5t-33.5 -98.5v-279h-136z" />
    <glyph glyph-name="Ydieresis" unicode="&#x178;" horiz-adv-x="605" 
d="M60 0v518h136v-418h213v418h136v-518h-174v-136h-137v136h-174z" />
    <glyph glyph-name="nonbreakingspace" unicode="&#xa0;" horiz-adv-x="500" 
 />
    <glyph glyph-name="exclamdown" unicode="&#xa1;" horiz-adv-x="664" 
d="M15 700h159l139 -298l30 -74l33 75l133 297h140l-280 -596q-28 -59 -71 -85.5t-114 -26.5q-25 0 -54 9q-10 3 -33 13l16 106q29 -15 60 -15q29 0 44 7q22 10 35 40l20 47zM449 905l73 -39q-28 -69 -90 -98q-41 -19 -95 -19q-56 0 -95 18q-61 28 -90 99l73 39
q14 -35 41.5 -50t70.5 -15q52 0 83 25q19 16 29 40z" />
    <glyph glyph-name="cent" unicode="&#xa2;" horiz-adv-x="566" 
d="M10 518h151l98 -288l31 -97l34 103l94 282h138l-219 -581q-26 -70 -58 -102q-56 -56 -154 -56q-21 0 -40 3.5t-40 10.5l10 101q18 -6 29.5 -8.5t24.5 -2.5q71 0 94 58l12 30zM399 763l50 -46q-25 -47 -67 -72.5t-98 -25.5q-42 0 -74 13q-58 24 -91 85l50 46
q24 -35 61 -48q23 -8 54 -8q35 0 60 10q35 14 55 46z" />
    <glyph glyph-name="sterling" unicode="&#xa3;" horiz-adv-x="379" 
d="M167 700h142v-497q0 -89 -26 -136q-42 -75 -155 -75q-54 0 -108 13v114q22 -5 36 -7t32 -2q43 0 61 25t18 78v487z" />
    <glyph glyph-name="currency" unicode="&#xa4;" horiz-adv-x="760" 
d="M60 561l79 80l84 -83q32 22 72.5 34.5t84.5 12.5q34 0 64 -7q48 -11 93 -40l83 83l80 -80l-83 -83q25 -35 36.5 -76t11.5 -82q0 -39 -11.5 -80t-36.5 -78l83 -82l-80 -80l-82 83q-37 -25 -77 -36.5t-81 -11.5q-43 0 -82.5 11t-75.5 37l-83 -83l-79 80l83 82
q-25 36 -36.5 77t-11.5 81q0 43 11 82.5t37 75.5zM210 320q0 -66 46 -116q50 -54 124 -54t124 54q46 50 46 116q0 74 -54 124q-50 46 -116 46t-116 -46q-54 -50 -54 -124z" />
    <glyph glyph-name="yen" unicode="&#xa5;" horiz-adv-x="510" 
d="M70 700h288v139h142v-263h-288v-576h-142v700z" />
    <glyph glyph-name="brokenbar" unicode="&#xa6;" horiz-adv-x="260" 
d="M200 518v-142h-140v142h140zM200 142v-142h-140v142h140z" />
    <glyph glyph-name="section" unicode="&#xa7;" horiz-adv-x="624" 
d="M502 678l-12 -100q-55 18 -82 25q-40 10 -74 10q-37 0 -61.5 -14.5t-24.5 -37.5q0 -43 62 -78q17 -10 71 -35q95 -44 130 -76q53 -49 53 -127q0 -46 -21 -88q-26 -52 -85 -97q27 -27 38 -61q7 -22 7 -48q0 -100 -82 -141q-52 -26 -136 -26q-33 0 -68 6q-51 9 -96 29
l13 100q48 -19 78 -27t68 -8q49 0 73 18.5t24 43.5q0 30 -28 54q-18 16 -67 41q-80 40 -104 55q-55 35 -84 73q-34 46 -34 105q0 56 30 100.5t80 72.5q-26 22 -34.5 52t-8.5 62q0 67 57.5 110t147.5 43q38 0 80 -8t90 -28zM259 382q-25 -20 -41.5 -47t-16.5 -51
q0 -57 64 -99q12 -8 102 -59q25 22 40.5 52.5t15.5 63.5q0 43 -48 77q-13 9 -116 63z" />
    <glyph glyph-name="dieresis" unicode="&#xa8;" horiz-adv-x="538" 
d="M70 700h418v-124h-276v-158h251v-115h-251v-179h276v-124h-418v700zM111 913h115v-115h-115v115zM340 913h115v-115h-115v115z" />
    <glyph glyph-name="copyright" unicode="&#xa9;" horiz-adv-x="836" 
d="M60 350q0 157 113 261q105 97 245 97q155 0 260 -113q98 -106 98 -245q0 -140 -97 -245q-104 -113 -261 -113q-140 0 -245 97q-113 104 -113 261zM143 350q0 -120 86 -200q81 -75 189 -75q120 0 200 86q75 81 75 189t-74 188q-80 87 -201 87q-108 0 -188 -74
q-87 -80 -87 -201zM520 524l-4 -67q-11 4 -33 7t-35 3q-32 0 -58 -19q-39 -29 -39 -89q0 -58 31 -92q28 -30 67 -30q37 0 72 15l4 -69q-42 -16 -87 -16q-97 0 -145 63q-39 51 -39 129q0 73 42 121q49 56 142 56q23 0 41 -2t41 -10z" />
    <glyph glyph-name="ordfeminine" unicode="&#xaa;" horiz-adv-x="635" 
d="M581 141l9 -119q-42 -14 -89 -22t-92 -8q-156 0 -256 89q-108 96 -108 265q0 160 102 259q106 103 288 103q43 0 80 -6t75 -18l-6 -120q-65 26 -139 26q-104 0 -169 -54q-55 -45 -73 -118h284v-115h-289q8 -77 60 -129q64 -64 177 -64q40 0 75 7t71 24z" />
    <glyph glyph-name="guillemotleft" unicode="&#xab;" horiz-adv-x="588" 
d="M161 518h141l-121 -203l121 -211h-141l-121 211zM407 518h141l-121 -203l121 -211h-141l-121 211z" />
    <glyph glyph-name="logicalnot" unicode="&#xac;" horiz-adv-x="756" 
d="M70 335v125h616v-270h-115v145h-501z" />
    <glyph glyph-name="minus" unicode="&#xad;" horiz-adv-x="1000" 
 />
    <glyph glyph-name="registered" unicode="&#xae;" horiz-adv-x="836" 
d="M60 350q0 157 113 261q105 97 245 97q155 0 260 -113q98 -106 98 -245q0 -140 -97 -245q-104 -113 -261 -113q-140 0 -245 97q-113 104 -113 261zM143 350q0 -120 86 -200q81 -75 189 -75q120 0 200 86q75 81 75 189t-74 188q-80 87 -201 87q-108 0 -188 -74
q-87 -80 -87 -201zM283 531h159q56 0 89.5 -26.5t33.5 -72.5q0 -34 -20 -56.5t-51 -28.5q13 -4 25 -18q9 -10 13 -21l59 -142h-97l-47 116q-5 13 -18 21t-29 8h-28v-145h-89v365zM372 462v-82h39q38 0 53 17q9 10 9 27q0 15 -11 24q-16 14 -51 14h-39z" />
    <glyph glyph-name="macron" unicode="&#xaf;" horiz-adv-x="422" 
d="M140 0v700h142v-700h-142zM180 875v-126h-135v126h135zM242 875h135v-126h-135v126z" />
    <glyph glyph-name="degree" unicode="&#xb0;" horiz-adv-x="280" 
d="M30 676q0 42 31 76t79 34q42 0 76 -31t34 -79q0 -42 -31 -76t-79 -34t-79 33t-31 77zM90 676q0 -21 15.5 -35.5t34.5 -14.5q21 0 35.5 15.5t14.5 34.5q0 21 -15.5 35.5t-34.5 14.5q-20 0 -35 -14t-15 -36z" />
    <glyph glyph-name="plusminus" unicode="&#xb1;" horiz-adv-x="628" 
d="M55 304v90h214v214h90v-214h214v-90h-214v-164h-90v164h-214zM55 0v90h518v-90h-518z" />
    <glyph glyph-name="twosuperior" unicode="&#xb2;" horiz-adv-x="282" 
d="M70 0v700h142v-700h-142z" />
    <glyph glyph-name="threesuperior" unicode="&#xb3;" horiz-adv-x="270" 
d="M67 518h136v-518h-136v518zM205 735v-140h-140v140h140z" />
    <glyph glyph-name="acute" unicode="&#xb4;" horiz-adv-x="441" 
d="M60 518h236v122h129l1 -227h-230v-413h-136v518z" />
    <glyph glyph-name="mu" unicode="&#xb5;" horiz-adv-x="577" 
d="M60 518h136v-313q0 -59 31 -84q22 -18 57 -18q59 0 92 45q30 41 30 96v274h136v-518h-131v81q-21 -34 -41 -52q-41 -37 -96 -37q-39 0 -59.5 16t-31.5 48h-4l17 -270h-136v732z" />
    <glyph glyph-name="paragraph" unicode="&#xb6;" horiz-adv-x="572" 
d="M223 -219v619q-81 0 -129.5 43t-48.5 107t44 105q48 45 128 45h101v-919h-95zM407 700h95v-919h-95v919z" />
    <glyph glyph-name="periodcentered" unicode="&#xb7;" horiz-adv-x="310" 
d="M45 360q0 42 31 76t79 34q42 0 76 -31t34 -79t-33 -79t-77 -31q-42 0 -76 31t-34 79z" />
    <glyph glyph-name="periodcentered" unicode="&#x2219;" horiz-adv-x="310" 
d="M45 360q0 42 31 76t79 34q42 0 76 -31t34 -79t-33 -79t-77 -31q-42 0 -76 31t-34 79z" />
    <glyph glyph-name="cedilla" unicode="&#xb8;" horiz-adv-x="565" 
d="M530 218h-353q0 -57 41.5 -92.5t112.5 -35.5q81 0 162 36v-102q-41 -15 -88 -23.5t-91 -8.5q-117 0 -192 60q-87 70 -87 207q0 115 71 191t185 76q101 0 163 -59q76 -72 76 -218v-31zM177 311h213q0 57 -31 89t-76 32q-48 0 -77 -36t-29 -85zM127 715h121v-116h-121v116z
M318 715h121v-116h-121v116z" />
    <glyph glyph-name="onesuperior" unicode="&#xb9;" horiz-adv-x="1036" 
d="M70 700h175l242 -441l37 -95v124v412h133v-700h-175l-244 458l-35 78v-124v-412h-133v700zM853 566q62 0 97.5 -42.5t35.5 -113.5q0 -70 -35 -113t-98 -43q-62 0 -97.5 43.5t-35.5 112.5q0 72 34.5 114t98.5 42zM853 514q-26 0 -34 -28t-8 -76q0 -62 10.5 -83t31.5 -21
q26 0 34 29t8 75q0 64 -10.5 84t-31.5 20zM986 114v-79h-266v79h266z" />
    <glyph glyph-name="ordmasculine" unicode="&#xba;" horiz-adv-x="477" 
d="M350 224h-173q0 -60 42 -97t101 -37q36 0 70 9q16 4 41 15l8 -102q-66 -20 -141 -20q-128 0 -195.5 74t-67.5 199q0 116 66.5 188.5t183.5 72.5q49 0 94 -8q28 -5 55 -14l-9 -101q-27 12 -55 18.5t-53 6.5q-56 0 -98 -30.5t-42 -83.5h173v-90z" />
    <glyph glyph-name="guillemotright" unicode="&#xbb;" horiz-adv-x="588" 
d="M181 518l121 -203l-121 -211h-141l121 211l-121 203h141zM427 518l121 -203l-121 -211h-141l121 211l-121 203h141z" />
    <glyph glyph-name="onequarter" unicode="&#xbc;" horiz-adv-x="260" 
d="M198 518v-559q0 -78 -20 -115q-36 -67 -138 -67q-18 0 -33 2l-27 6v96q6 -2 15.5 -3t19.5 -1q28 0 37.5 18.5t9.5 58.5v564h136zM60 732h140v-126h-140v126z" />
    <glyph glyph-name="onehalf" unicode="&#xbd;" horiz-adv-x="552" 
d="M53 27l15 122q42 -19 88 -30.5t85 -11.5q51 0 81.5 24.5t30.5 59.5q0 46 -41 74q-8 6 -96.5 49.5t-120.5 77.5q-45 47 -45 119q0 69 38 120q57 77 182 77q60 0 122 -11q47 -8 78 -19l-15 -112q-36 15 -77 24.5t-76 9.5q-59 0 -86 -28q-19 -20 -19 -46q0 -39 32 -66
q20 -17 61 -34q75 -32 101 -47q53 -30 79 -68q32 -47 32 -115q0 -84 -61 -139q-71 -65 -206 -65q-53 0 -93 8.5t-89 26.5z" />
    <glyph glyph-name="threequarters" unicode="&#xbe;" horiz-adv-x="454" 
d="M404 504l-12 -98q-29 11 -59 18t-59 7q-52 0 -75 -20q-16 -14 -16 -34q0 -31 35 -48q9 -4 44 -16q65 -20 95 -43q57 -43 57 -118q0 -85 -70 -127q-55 -33 -132 -33q-40 0 -87.5 8.5t-84.5 21.5l6 106q35 -15 74.5 -25t71.5 -10q44 0 65 16.5t21 39.5q0 29 -28 47
q-13 8 -62 26q-87 32 -115 69q-24 32 -24 82q0 62 41 103q50 50 148 50q44 0 86.5 -5.5t79.5 -16.5z" />
    <glyph glyph-name="questiondown" unicode="&#xbf;" horiz-adv-x="460" 
d="M162 518h136v-518h-136v518zM195 735v-140h-135v140h135zM265 735h135v-140h-135v140z" />
    <glyph glyph-name="Agrave" unicode="&#xc0;" horiz-adv-x="749" 
d="M294 700h162l278 -700h-160l-59 157h-289l-59 -157h-152zM271 273h202l-103 286z" />
    <glyph glyph-name="Agrave" unicode="&#x410;" horiz-adv-x="749" 
d="M294 700h162l278 -700h-160l-59 157h-289l-59 -157h-152zM271 273h202l-103 286z" />
    <glyph glyph-name="Aacute" unicode="&#xc1;" horiz-adv-x="635" 
d="M70 700h448v-124h-306v-146h114q132 0 196 -72q53 -59 53 -154q0 -81 -54 -136q-67 -68 -195 -68h-256v700zM212 320v-210h88q46 0 76 16q49 26 49 89t-48 89q-30 16 -77 16h-88z" />
    <glyph glyph-name="Aacute" unicode="&#x411;" horiz-adv-x="635" 
d="M70 700h448v-124h-306v-146h114q132 0 196 -72q53 -59 53 -154q0 -81 -54 -136q-67 -68 -195 -68h-256v700zM212 320v-210h88q46 0 76 16q49 26 49 89t-48 89q-30 16 -77 16h-88z" />
    <glyph glyph-name="Acircumflex" unicode="&#xc2;" horiz-adv-x="626" 
d="M70 700h230q84 0 139 -25q94 -43 94 -148q0 -73 -41 -117q-28 -30 -73 -44q64 -11 105.5 -55.5t41.5 -113.5q0 -76 -49 -126q-70 -71 -226 -71h-221v700zM212 590v-174h69q63 0 90 33q19 23 19 54q0 33 -18 54q-29 33 -97 33h-63zM212 306v-196h79q60 0 92.5 26.5
t32.5 71.5q0 62 -52 85q-30 13 -73 13h-79z" />
    <glyph glyph-name="Acircumflex" unicode="&#x412;" horiz-adv-x="626" 
d="M70 700h230q84 0 139 -25q94 -43 94 -148q0 -73 -41 -117q-28 -30 -73 -44q64 -11 105.5 -55.5t41.5 -113.5q0 -76 -49 -126q-70 -71 -226 -71h-221v700zM212 590v-174h69q63 0 90 33q19 23 19 54q0 33 -18 54q-29 33 -97 33h-63zM212 306v-196h79q60 0 92.5 26.5
t32.5 71.5q0 62 -52 85q-30 13 -73 13h-79z" />
    <glyph glyph-name="Atilde" unicode="&#xc3;" horiz-adv-x="510" 
d="M70 700h430v-124h-288v-576h-142v700z" />
    <glyph glyph-name="Atilde" unicode="&#x413;" horiz-adv-x="510" 
d="M70 700h430v-124h-288v-576h-142v700z" />
    <glyph glyph-name="Adieresis" unicode="&#xc4;" horiz-adv-x="741" 
d="M185 700h456v-576h80v-271h-140v147h-421v-147h-140v271h80q51 86 70 180q15 73 15 172v224zM499 576h-179v-100q0 -118 -10 -179q-15 -90 -62 -173h251v452z" />
    <glyph glyph-name="Adieresis" unicode="&#x414;" horiz-adv-x="741" 
d="M185 700h456v-576h80v-271h-140v147h-421v-147h-140v271h80q51 86 70 180q15 73 15 172v224zM499 576h-179v-100q0 -118 -10 -179q-15 -90 -62 -173h251v452z" />
    <glyph glyph-name="Aring" unicode="&#xc5;" horiz-adv-x="538" 
d="M70 700h418v-124h-276v-158h251v-115h-251v-179h276v-124h-418v700z" />
    <glyph glyph-name="Aring" unicode="&#x415;" horiz-adv-x="538" 
d="M70 700h418v-124h-276v-158h251v-115h-251v-179h276v-124h-418v700z" />
    <glyph glyph-name="AE" unicode="&#xc6;" horiz-adv-x="978" 
d="M418 700h142v-299l238 299h169l-272 -317l276 -383h-180l-228 348l-3 -348h-142v348l-231 -348h-180l276 383l-272 317h169l235 -299z" />
    <glyph glyph-name="AE" unicode="&#x416;" horiz-adv-x="978" 
d="M418 700h142v-299l238 299h169l-272 -317l276 -383h-180l-228 348l-3 -348h-142v348l-231 -348h-180l276 383l-272 317h169l235 -299z" />
    <glyph glyph-name="Ccedilla" unicode="&#xc7;" horiz-adv-x="596" 
d="M165 307v115h85q56 0 84 25t28 65q0 51 -46 70q-26 11 -67 11q-42 0 -78 -8.5t-83 -29.5l-14 118q54 17 103 26t102 9q121 0 183 -53q55 -47 55 -123q0 -59 -31 -101.5t-85 -56.5q66 -14 103 -61.5t37 -127.5q0 -111 -109 -160q-74 -33 -177 -33q-56 0 -103 11
q-24 6 -102 32l11 119q50 -22 98.5 -34.5t88.5 -12.5q71 0 107 29q31 25 31 64q0 43 -20 67q-33 40 -116 40h-85z" />
    <glyph glyph-name="Ccedilla" unicode="&#x417;" horiz-adv-x="596" 
d="M165 307v115h85q56 0 84 25t28 65q0 51 -46 70q-26 11 -67 11q-42 0 -78 -8.5t-83 -29.5l-14 118q54 17 103 26t102 9q121 0 183 -53q55 -47 55 -123q0 -59 -31 -101.5t-85 -56.5q66 -14 103 -61.5t37 -127.5q0 -111 -109 -160q-74 -33 -177 -33q-56 0 -103 11
q-24 6 -102 32l11 119q50 -22 98.5 -34.5t88.5 -12.5q71 0 107 29q31 25 31 64q0 43 -20 67q-33 40 -116 40h-85z" />
    <glyph glyph-name="Egrave" unicode="&#xc8;" horiz-adv-x="747" 
d="M70 700h142v-360l-3 -170l53 102l245 428h170v-700h-142v361l3 169l-51 -106l-247 -424h-170v700z" />
    <glyph glyph-name="Egrave" unicode="&#x418;" horiz-adv-x="747" 
d="M70 700h142v-360l-3 -170l53 102l245 428h170v-700h-142v361l3 169l-51 -106l-247 -424h-170v700z" />
    <glyph glyph-name="Eacute" unicode="&#xc9;" horiz-adv-x="747" 
d="M70 700h142v-360l-3 -170l53 102l245 428h170v-700h-142v361l3 169l-51 -106l-247 -424h-170v700zM478 905l73 -39q-28 -69 -90 -98q-41 -19 -95 -19q-56 0 -95 18q-61 28 -90 99l73 39q14 -35 41.5 -50t70.5 -15q52 0 83 25q19 16 29 40z" />
    <glyph glyph-name="Eacute" unicode="&#x419;" horiz-adv-x="747" 
d="M70 700h142v-360l-3 -170l53 102l245 428h170v-700h-142v361l3 169l-51 -106l-247 -424h-170v700zM478 905l73 -39q-28 -69 -90 -98q-41 -19 -95 -19q-56 0 -95 18q-61 28 -90 99l73 39q14 -35 41.5 -50t70.5 -15q52 0 83 25q19 16 29 40z" />
    <glyph glyph-name="Ecircumflex" unicode="&#xca;" horiz-adv-x="662" 
d="M70 700h142v-299l256 299h169l-292 -317l310 -383h-180l-260 348l-3 -348h-142v700z" />
    <glyph glyph-name="Ecircumflex" unicode="&#x41a;" horiz-adv-x="662" 
d="M70 700h142v-299l256 299h169l-292 -317l310 -383h-180l-260 348l-3 -348h-142v700z" />
    <glyph glyph-name="Edieresis" unicode="&#xcb;" horiz-adv-x="679" 
d="M149 700h460v-700h-142v576h-185v-140q0 -164 -9 -234q-13 -104 -55 -154q-47 -56 -140 -56q-18 0 -30 1.5t-38 6.5l6 111q9 -2 22 -3.5t16 -1.5q58 0 80 77q16 56 16 171v15v13v12q0 20 -0.5 39.5t-0.5 38.5v228z" />
    <glyph glyph-name="Edieresis" unicode="&#x41b;" horiz-adv-x="679" 
d="M149 700h460v-700h-142v576h-185v-140q0 -164 -9 -234q-13 -104 -55 -154q-47 -56 -140 -56q-18 0 -30 1.5t-38 6.5l6 111q9 -2 22 -3.5t16 -1.5q58 0 80 77q16 56 16 171v15v13v12q0 20 -0.5 39.5t-0.5 38.5v228z" />
    <glyph glyph-name="Igrave" unicode="&#xcc;" horiz-adv-x="965" 
d="M550 0h-135l-170 500l-32 100l-1 -108v-492h-142v700h240l140 -407l31 -124l34 124l140 407h240v-700h-142v492l2 108l-35 -100z" />
    <glyph glyph-name="Igrave" unicode="&#x41c;" horiz-adv-x="965" 
d="M550 0h-135l-170 500l-32 100l-1 -108v-492h-142v700h240l140 -407l31 -124l34 124l140 407h240v-700h-142v492l2 108l-35 -100z" />
    <glyph glyph-name="Iacute" unicode="&#xcd;" horiz-adv-x="708" 
d="M70 700h142v-282h284v282h142v-700h-142v303h-284v-303h-142v700z" />
    <glyph glyph-name="Iacute" unicode="&#x41d;" horiz-adv-x="708" 
d="M70 700h142v-282h284v282h142v-700h-142v303h-284v-303h-142v700z" />
    <glyph glyph-name="Icircumflex" unicode="&#xce;" horiz-adv-x="776" 
d="M388 708q152 0 245 -91q98 -96 98 -267q0 -169 -98 -266q-93 -92 -245 -92t-245 91q-98 96 -98 267q0 169 98 266q93 92 245 92zM388 608q-75 0 -124 -46q-69 -65 -69 -212q0 -146 69 -211q50 -47 124 -47q75 0 124 46q69 65 69 212q0 146 -69 211q-50 47 -124 47z" />
    <glyph glyph-name="Icircumflex" unicode="&#x41e;" horiz-adv-x="776" 
d="M388 708q152 0 245 -91q98 -96 98 -267q0 -169 -98 -266q-93 -92 -245 -92t-245 91q-98 96 -98 267q0 169 98 266q93 92 245 92zM388 608q-75 0 -124 -46q-69 -65 -69 -212q0 -146 69 -211q50 -47 124 -47q75 0 124 46q69 65 69 212q0 146 -69 211q-50 47 -124 47z" />
    <glyph glyph-name="Idieresis" unicode="&#xcf;" horiz-adv-x="701" 
d="M70 700h561v-700h-142v585h-277v-585h-142v700z" />
    <glyph glyph-name="Idieresis" unicode="&#x41f;" horiz-adv-x="701" 
d="M70 700h561v-700h-142v585h-277v-585h-142v700z" />
    <glyph glyph-name="Eth" unicode="&#xd0;" horiz-adv-x="586" 
d="M70 700h207q154 0 223 -84q46 -56 46 -135q0 -88 -59 -149q-67 -69 -184 -69h-91v-263h-142v700zM212 373h65q57 0 88 32t31 80q0 45 -26 72q-31 33 -93 33h-65v-217z" />
    <glyph glyph-name="Eth" unicode="&#x420;" horiz-adv-x="586" 
d="M70 700h207q154 0 223 -84q46 -56 46 -135q0 -88 -59 -149q-67 -69 -184 -69h-91v-263h-142v700zM212 373h65q57 0 88 32t31 80q0 45 -26 72q-31 33 -93 33h-65v-217z" />
    <glyph glyph-name="Ntilde" unicode="&#xd1;" horiz-adv-x="630" 
d="M581 141l9 -119q-42 -14 -89 -22t-92 -8q-156 0 -256 89q-108 96 -108 265q0 166 104 264t286 98q43 0 80 -6t75 -18l-6 -120q-65 26 -139 26q-111 0 -180.5 -63.5t-69.5 -178.5q0 -123 78 -186q65 -52 162 -52q45 0 80 8.5t66 22.5z" />
    <glyph glyph-name="Ntilde" unicode="&#x421;" horiz-adv-x="630" 
d="M581 141l9 -119q-42 -14 -89 -22t-92 -8q-156 0 -256 89q-108 96 -108 265q0 166 104 264t286 98q43 0 80 -6t75 -18l-6 -120q-65 26 -139 26q-111 0 -180.5 -63.5t-69.5 -178.5q0 -123 78 -186q65 -52 162 -52q45 0 80 8.5t66 22.5z" />
    <glyph glyph-name="Ograve" unicode="&#xd2;" horiz-adv-x="576" 
d="M15 700h546v-124h-202v-576h-142v576h-202v124z" />
    <glyph glyph-name="Ograve" unicode="&#x422;" horiz-adv-x="576" 
d="M15 700h546v-124h-202v-576h-142v576h-202v124z" />
    <glyph glyph-name="Oacute" unicode="&#xd3;" horiz-adv-x="654" 
d="M10 700h159l139 -298l30 -74l33 75l133 297h140l-280 -596q-30 -62 -73 -89q-37 -23 -93 -23q-33 0 -56.5 5.5t-49.5 16.5l16 106q29 -15 60 -15q29 0 44 7q22 10 35 40l20 47z" />
    <glyph glyph-name="Oacute" unicode="&#x423;" horiz-adv-x="654" 
d="M10 700h159l139 -298l30 -74l33 75l133 297h140l-280 -596q-30 -62 -73 -89q-37 -23 -93 -23q-33 0 -56.5 5.5t-49.5 16.5l16 106q29 -15 60 -15q29 0 44 7q22 10 35 40l20 47z" />
    <glyph glyph-name="Ocircumflex" unicode="&#xd4;" horiz-adv-x="958" 
d="M550 740v-90h42q136 0 223.5 -83.5t87.5 -216.5t-87.5 -216.5t-223.5 -83.5h-42v-90h-142v90h-42q-136 0 -223.5 83.5t-87.5 216.5t87.5 216.5t223.5 83.5h42v90h142zM580 540h-30v-380h30q80 0 126.5 50.5t46.5 139.5q0 90 -46 140t-127 50zM378 160h30v380h-30
q-80 0 -126.5 -50.5t-46.5 -139.5q0 -90 46 -140t127 -50z" />
    <glyph glyph-name="Ocircumflex" unicode="&#x424;" horiz-adv-x="958" 
d="M550 740v-90h42q136 0 223.5 -83.5t87.5 -216.5t-87.5 -216.5t-223.5 -83.5h-42v-90h-142v90h-42q-136 0 -223.5 83.5t-87.5 216.5t87.5 216.5t223.5 83.5h42v90h142zM580 540h-30v-380h30q80 0 126.5 50.5t46.5 139.5q0 90 -46 140t-127 50zM378 160h30v380h-30
q-80 0 -126.5 -50.5t-46.5 -139.5q0 -90 46 -140t127 -50z" />
    <glyph glyph-name="Otilde" unicode="&#xd5;" horiz-adv-x="699" 
d="M41 700h168l112 -195l32 -59l35 59l115 195h155l-213 -334l234 -366h-168l-134 222l-30 54l-33 -54l-139 -222h-155l234 366z" />
    <glyph glyph-name="Otilde" unicode="&#x425;" horiz-adv-x="699" 
d="M41 700h168l112 -195l32 -59l35 59l115 195h155l-213 -334l234 -366h-168l-134 222l-30 54l-33 -54l-139 -222h-155l234 366z" />
    <glyph glyph-name="Odieresis" unicode="&#xd6;" horiz-adv-x="739" 
d="M70 700h142v-576h284v576h142v-576h81v-268h-129v144h-520v700z" />
    <glyph glyph-name="Odieresis" unicode="&#x426;" horiz-adv-x="739" 
d="M70 700h142v-576h284v576h142v-576h81v-268h-129v144h-520v700z" />
    <glyph glyph-name="multiply" unicode="&#xd7;" horiz-adv-x="671" 
d="M50 700h142v-239q0 -50 14 -70q29 -41 122 -41q60 0 131 17v333h142v-700h-142v249q-36 -7 -65.5 -10.5t-65.5 -3.5q-168 0 -233 69q-45 48 -45 138v258z" />
    <glyph glyph-name="multiply" unicode="&#x427;" horiz-adv-x="671" 
d="M50 700h142v-239q0 -50 14 -70q29 -41 122 -41q60 0 131 17v333h142v-700h-142v249q-36 -7 -65.5 -10.5t-65.5 -3.5q-168 0 -233 69q-45 48 -45 138v258z" />
    <glyph glyph-name="Oslash" unicode="&#xd8;" horiz-adv-x="1038" 
d="M70 700h142v-576h236v576h142v-576h236v576h142v-700h-898v700z" />
    <glyph glyph-name="Oslash" unicode="&#x428;" horiz-adv-x="1038" 
d="M70 700h142v-576h236v576h142v-576h236v576h142v-700h-898v700z" />
    <glyph glyph-name="Ugrave" unicode="&#xd9;" horiz-adv-x="1067" 
d="M70 700h142v-576h236v576h142v-576h236v576h142v-576h79v-274h-133v150h-844v700z" />
    <glyph glyph-name="Ugrave" unicode="&#x429;" horiz-adv-x="1067" 
d="M70 700h142v-576h236v576h142v-576h236v576h142v-576h79v-274h-133v150h-844v700z" />
    <glyph glyph-name="Uacute" unicode="&#xda;" horiz-adv-x="714" 
d="M313 700v-262h98q136 0 203 -69q55 -56 55 -143q0 -99 -61 -159q-69 -67 -201 -67h-236v576h-151v124h293zM313 328v-218h94q54 0 85.5 30.5t31.5 78.5q0 55 -38 84q-33 25 -90 25h-83z" />
    <glyph glyph-name="Uacute" unicode="&#x42a;" horiz-adv-x="714" 
d="M313 700v-262h98q136 0 203 -69q55 -56 55 -143q0 -99 -61 -159q-69 -67 -201 -67h-236v576h-151v124h293zM313 328v-218h94q54 0 85.5 30.5t31.5 78.5q0 55 -38 84q-33 25 -90 25h-83z" />
    <glyph glyph-name="Ucircumflex" unicode="&#xdb;" horiz-adv-x="880" 
d="M212 700v-262h98q136 0 203 -69q55 -56 55 -143q0 -99 -61 -159q-69 -67 -201 -67h-236v700h142zM212 328v-218h94q54 0 85.5 30.5t31.5 78.5q0 55 -38 84q-33 25 -90 25h-83zM668 700h142v-700h-142v700z" />
    <glyph glyph-name="Ucircumflex" unicode="&#x42b;" horiz-adv-x="880" 
d="M212 700v-262h98q136 0 203 -69q55 -56 55 -143q0 -99 -61 -159q-69 -67 -201 -67h-236v700h142zM212 328v-218h94q54 0 85.5 30.5t31.5 78.5q0 55 -38 84q-33 25 -90 25h-83zM668 700h142v-700h-142v700z" />
    <glyph glyph-name="Udieresis" unicode="&#xdc;" horiz-adv-x="613" 
d="M212 700v-262h98q136 0 203 -69q55 -56 55 -143q0 -99 -61 -159q-69 -67 -201 -67h-236v700h142zM212 328v-218h94q54 0 85.5 30.5t31.5 78.5q0 55 -38 84q-33 25 -90 25h-83z" />
    <glyph glyph-name="Udieresis" unicode="&#x42c;" horiz-adv-x="613" 
d="M212 700v-262h98q136 0 203 -69q55 -56 55 -143q0 -99 -61 -159q-69 -67 -201 -67h-236v700h142zM212 328v-218h94q54 0 85.5 30.5t31.5 78.5q0 55 -38 84q-33 25 -90 25h-83z" />
    <glyph glyph-name="Yacute" unicode="&#xdd;" horiz-adv-x="640" 
d="M151 303v115h294q-10 66 -50 109q-61 66 -183 66q-49 0 -92 -9q-27 -6 -59 -18l-11 112q90 30 193 30q151 0 240 -79q67 -59 95 -157q17 -59 17 -111q0 -178 -105 -276q-100 -93 -268 -93q-52 0 -94.5 8t-92.5 25l17 118q44 -19 86.5 -27.5t88.5 -8.5q108 0 167 61
q51 53 51 135h-294z" />
    <glyph glyph-name="Yacute" unicode="&#x42d;" horiz-adv-x="640" 
d="M151 303v115h294q-10 66 -50 109q-61 66 -183 66q-49 0 -92 -9q-27 -6 -59 -18l-11 112q90 30 193 30q151 0 240 -79q67 -59 95 -157q17 -59 17 -111q0 -178 -105 -276q-100 -93 -268 -93q-52 0 -94.5 8t-92.5 25l17 118q44 -19 86.5 -27.5t88.5 -8.5q108 0 167 61
q51 53 51 135h-294z" />
    <glyph glyph-name="Thorn" unicode="&#xde;" horiz-adv-x="1045" 
d="M212 414h104q11 126 102 208q95 86 239 86q152 0 245 -91q98 -96 98 -267q0 -169 -98 -266q-93 -92 -245 -92q-142 0 -239 82q-102 86 -102 225h-104v-299h-142v700h142v-286zM657 608q-75 0 -124 -46q-69 -65 -69 -212q0 -146 69 -211q50 -47 124 -47q75 0 124 46
q69 65 69 212q0 146 -69 211q-50 47 -124 47z" />
    <glyph glyph-name="Thorn" unicode="&#x42e;" horiz-adv-x="1045" 
d="M212 414h104q11 126 102 208q95 86 239 86q152 0 245 -91q98 -96 98 -267q0 -169 -98 -266q-93 -92 -245 -92q-142 0 -239 82q-102 86 -102 225h-104v-299h-142v700h142v-286zM657 608q-75 0 -124 -46q-69 -65 -69 -212q0 -146 69 -211q50 -47 124 -47q75 0 124 46
q69 65 69 212q0 146 -69 211q-50 47 -124 47z" />
    <glyph glyph-name="germandbls" unicode="&#xdf;" horiz-adv-x="638" 
d="M568 700v-700h-142v260h-85l-136 -260h-170l167 288q-51 16 -86 52q-52 55 -52 144q0 133 109 185q65 31 168 31h227zM426 370v220h-81q-62 0 -96.5 -28.5t-34.5 -81.5q0 -48 28 -76q34 -34 104 -34h80z" />
    <glyph glyph-name="germandbls" unicode="&#x42f;" horiz-adv-x="638" 
d="M568 700v-700h-142v260h-85l-136 -260h-170l167 288q-51 16 -86 52q-52 55 -52 144q0 133 109 185q65 31 168 31h227zM426 370v220h-81q-62 0 -96.5 -28.5t-34.5 -81.5q0 -48 28 -76q34 -34 104 -34h80z" />
    <glyph glyph-name="agrave" unicode="&#xe0;" horiz-adv-x="581" 
d="M97 385v107q48 19 92.5 26.5t97.5 7.5q143 0 197 -75q32 -45 32 -124v-327h-133v76q-27 -50 -84 -71q-36 -13 -80 -13q-95 0 -144 52q-40 43 -40 106q0 74 51 117q64 54 206 54h39l37 -1h12l-1 22q0 45 -33.5 67t-82.5 22q-41 0 -80.5 -10t-85.5 -36zM380 235h-23
q-82 0 -116 -9q-68 -18 -68 -75q0 -29 17 -46q21 -21 66 -21q54 0 86 30q38 36 38 108v13z" />
    <glyph glyph-name="agrave" unicode="&#x430;" horiz-adv-x="581" 
d="M97 385v107q48 19 92.5 26.5t97.5 7.5q143 0 197 -75q32 -45 32 -124v-327h-133v76q-27 -50 -84 -71q-36 -13 -80 -13q-95 0 -144 52q-40 43 -40 106q0 74 51 117q64 54 206 54h39l37 -1h12l-1 22q0 45 -33.5 67t-82.5 22q-41 0 -80.5 -10t-85.5 -36zM380 235h-23
q-82 0 -116 -9q-68 -18 -68 -75q0 -29 17 -46q21 -21 66 -21q54 0 86 30q38 36 38 108v13z" />
    <glyph glyph-name="aacute" unicode="&#xe1;" horiz-adv-x="619" 
d="M542 779v-121q-40 -9 -77.5 -12.5t-68.5 -3.5q-111 0 -165 -29q-87 -46 -87 -174v-45h4q19 52 60 84q52 40 134 40q115 0 180 -74q62 -70 62 -185q0 -138 -83 -208q-70 -59 -181 -59q-158 0 -227 112q-58 94 -58 283q0 168 62 258q51 74 146 100q59 16 166 16
q59 0 133 18zM194 255q0 -74 31.5 -119.5t92.5 -45.5q60 0 92 46t32 119q0 74 -30 117q-33 48 -94 48q-60 0 -92 -46t-32 -119z" />
    <glyph glyph-name="aacute" unicode="&#x431;" horiz-adv-x="619" 
d="M542 779v-121q-40 -9 -77.5 -12.5t-68.5 -3.5q-111 0 -165 -29q-87 -46 -87 -174v-45h4q19 52 60 84q52 40 134 40q115 0 180 -74q62 -70 62 -185q0 -138 -83 -208q-70 -59 -181 -59q-158 0 -227 112q-58 94 -58 283q0 168 62 258q51 74 146 100q59 16 166 16
q59 0 133 18zM194 255q0 -74 31.5 -119.5t92.5 -45.5q60 0 92 46t32 119q0 74 -30 117q-33 48 -94 48q-60 0 -92 -46t-32 -119z" />
    <glyph glyph-name="acircumflex" unicode="&#xe2;" horiz-adv-x="565" 
d="M65 518h254q67 0 109 -19q69 -31 69 -108q0 -49 -27.5 -78.5t-68.5 -37.5q51 -2 85 -37t34 -93q0 -65 -50.5 -105t-142.5 -40h-262v518zM201 428v-112h84q42 0 59.5 13t17.5 43q0 28 -18 42t-59 14h-84zM201 226v-136h87q33 0 51 7q39 15 39 61q0 35 -21.5 51.5
t-69.5 16.5h-86z" />
    <glyph glyph-name="acircumflex" unicode="&#x432;" horiz-adv-x="565" 
d="M65 518h254q67 0 109 -19q69 -31 69 -108q0 -49 -27.5 -78.5t-68.5 -37.5q51 -2 85 -37t34 -93q0 -65 -50.5 -105t-142.5 -40h-262v518zM201 428v-112h84q42 0 59.5 13t17.5 43q0 28 -18 42t-59 14h-84zM201 226v-136h87q33 0 51 7q39 15 39 61q0 35 -21.5 51.5
t-69.5 16.5h-86z" />
    <glyph glyph-name="atilde" unicode="&#xe3;" horiz-adv-x="436" 
d="M65 518h361v-105h-225v-413h-136v518z" />
    <glyph glyph-name="atilde" unicode="&#x433;" horiz-adv-x="436" 
d="M65 518h361v-105h-225v-413h-136v518z" />
    <glyph glyph-name="adieresis" unicode="&#xe4;" horiz-adv-x="640" 
d="M137 518h406v-418h85v-235h-125v135h-366v-135h-125v235h58q33 38 50 90t17 160v168zM202 100h205v318h-150v-77v-28q0 -65 -8 -105q-12 -61 -47 -108z" />
    <glyph glyph-name="adieresis" unicode="&#x434;" horiz-adv-x="640" 
d="M137 518h406v-418h85v-235h-125v135h-366v-135h-125v235h58q33 38 50 90t17 160v168zM202 100h205v318h-150v-77v-28q0 -65 -8 -105q-12 -61 -47 -108z" />
    <glyph glyph-name="aring" unicode="&#xe5;" horiz-adv-x="565" 
d="M530 218h-353q0 -57 41.5 -92.5t112.5 -35.5q81 0 162 36v-102q-41 -15 -88 -23.5t-91 -8.5q-117 0 -192 60q-87 70 -87 207q0 115 71 191t185 76q101 0 163 -59q76 -72 76 -218v-31zM177 311h213q0 57 -31 89t-76 32q-48 0 -77 -36t-29 -85z" />
    <glyph glyph-name="aring" unicode="&#x435;" horiz-adv-x="565" 
d="M530 218h-353q0 -57 41.5 -92.5t112.5 -35.5q81 0 162 36v-102q-41 -15 -88 -23.5t-91 -8.5q-117 0 -192 60q-87 70 -87 207q0 115 71 191t185 76q101 0 163 -59q76 -72 76 -218v-31zM177 311h213q0 57 -31 89t-76 32q-48 0 -77 -36t-29 -85z" />
    <glyph glyph-name="ae" unicode="&#xe6;" horiz-adv-x="810" 
d="M337 518h136v-231h5l155 231h155l-183 -237l200 -281h-172l-155 251h-5v-251h-136v251h-5l-155 -251h-172l200 281l-183 237h155l155 -231h5v231z" />
    <glyph glyph-name="ae" unicode="&#x436;" horiz-adv-x="810" 
d="M337 518h136v-231h5l155 231h155l-183 -237l200 -281h-172l-155 251h-5v-251h-136v251h-5l-155 -251h-172l200 281l-183 237h155l155 -231h5v231z" />
    <glyph glyph-name="ccedilla" unicode="&#xe7;" horiz-adv-x="494" 
d="M144 223v95h70q45 0 63 19q13 13 13 34q0 24 -18 39q-22 18 -70 18q-31 0 -71.5 -8t-77.5 -26l-2 99q49 18 88.5 25.5t85.5 7.5q114 0 165 -47q38 -35 38 -89q0 -53 -31 -84q-23 -23 -58 -32q44 -9 71 -30q44 -33 44 -92q0 -66 -56 -110q-64 -50 -178 -50q-41 0 -77 6
q-60 10 -118 36l12 98q47 -22 94.5 -32t83.5 -10q40 0 68.5 18t28.5 52q0 27 -20 43q-25 20 -77 20h-71z" />
    <glyph glyph-name="ccedilla" unicode="&#x437;" horiz-adv-x="494" 
d="M144 223v95h70q45 0 63 19q13 13 13 34q0 24 -18 39q-22 18 -70 18q-31 0 -71.5 -8t-77.5 -26l-2 99q49 18 88.5 25.5t85.5 7.5q114 0 165 -47q38 -35 38 -89q0 -53 -31 -84q-23 -23 -58 -32q44 -9 71 -30q44 -33 44 -92q0 -66 -56 -110q-64 -50 -178 -50q-41 0 -77 6
q-60 10 -118 36l12 98q47 -22 94.5 -32t83.5 -10q40 0 68.5 18t28.5 52q0 27 -20 43q-25 20 -77 20h-71z" />
    <glyph glyph-name="egrave" unicode="&#xe8;" horiz-adv-x="639" 
d="M65 518h136v-272l-4 -93l225 365h152v-518h-136v268l4 97l-232 -365h-145v518z" />
    <glyph glyph-name="egrave" unicode="&#x438;" horiz-adv-x="639" 
d="M65 518h136v-272l-4 -93l225 365h152v-518h-136v268l4 97l-232 -365h-145v518z" />
    <glyph glyph-name="eacute" unicode="&#xe9;" horiz-adv-x="639" 
d="M65 518h136v-272l-4 -93l225 365h152v-518h-136v268l4 97l-232 -365h-145v518zM439 762l50 -55q-25 -47 -67 -72.5t-98 -25.5q-42 0 -74 13q-58 23 -91 85l50 46q24 -27 52.5 -37t62.5 -10t59 10q35 14 56 46z" />
    <glyph glyph-name="eacute" unicode="&#x439;" horiz-adv-x="639" 
d="M65 518h136v-272l-4 -93l225 365h152v-518h-136v268l4 97l-232 -365h-145v518zM439 762l50 -55q-25 -47 -67 -72.5t-98 -25.5q-42 0 -74 13q-58 23 -91 85l50 46q24 -27 52.5 -37t62.5 -10t59 10q35 14 56 46z" />
    <glyph glyph-name="ecircumflex" unicode="&#xea;" horiz-adv-x="556" 
d="M65 518h136v-235h5l166 235h152l-192 -245l219 -273h-171l-174 248h-5v-248h-136v518z" />
    <glyph glyph-name="ecircumflex" unicode="&#x43a;" horiz-adv-x="556" 
d="M65 518h136v-235h5l166 235h152l-192 -245l219 -273h-171l-174 248h-5v-248h-136v518z" />
    <glyph glyph-name="edieresis" unicode="&#xeb;" horiz-adv-x="585" 
d="M103 518h417v-518h-136v418h-160v-115q0 -188 -26 -245q-30 -66 -135 -66q-19 0 -30 1t-28 7l6 104q18 -6 32 -6q38 0 51 46q9 32 9 113v46v215z" />
    <glyph glyph-name="edieresis" unicode="&#x43b;" horiz-adv-x="585" 
d="M103 518h417v-518h-136v418h-160v-115q0 -188 -26 -245q-30 -66 -135 -66q-19 0 -30 1t-28 7l6 104q18 -6 32 -6q38 0 51 46q9 32 9 113v46v215z" />
    <glyph glyph-name="igrave" unicode="&#xec;" horiz-adv-x="791" 
d="M460 0h-129l-102 304l-26 84h-5l3 -93v-295h-136v518h190l107 -296l29 -92h9l29 92l107 296h190v-518h-136v295l3 93h-5l-26 -84z" />
    <glyph glyph-name="igrave" unicode="&#x43c;" horiz-adv-x="791" 
d="M460 0h-129l-102 304l-26 84h-5l3 -93v-295h-136v518h190l107 -296l29 -92h9l29 92l107 296h190v-518h-136v295l3 93h-5l-26 -84z" />
    <glyph glyph-name="iacute" unicode="&#xed;" horiz-adv-x="620" 
d="M65 518h136v-196h218v196h136v-518h-136v222h-218v-222h-136v518z" />
    <glyph glyph-name="iacute" unicode="&#x43d;" horiz-adv-x="620" 
d="M65 518h136v-196h218v196h136v-518h-136v222h-218v-222h-136v518z" />
    <glyph glyph-name="icircumflex" unicode="&#xee;" horiz-adv-x="605" 
d="M35 259q0 121 71 194t197 73q125 0 196 -73t71 -194t-71 -194t-196 -73q-126 0 -197 73t-71 194zM177 259q0 -81 35 -125t91 -44q53 0 89 44.5t36 124.5q0 79 -35.5 124t-89.5 45q-55 0 -90.5 -44.5t-35.5 -124.5z" />
    <glyph glyph-name="icircumflex" unicode="&#x43e;" horiz-adv-x="605" 
d="M35 259q0 121 71 194t197 73q125 0 196 -73t71 -194t-71 -194t-196 -73q-126 0 -197 73t-71 194zM177 259q0 -81 35 -125t91 -44q53 0 89 44.5t36 124.5q0 79 -35.5 124t-89.5 45q-55 0 -90.5 -44.5t-35.5 -124.5z" />
    <glyph glyph-name="idieresis" unicode="&#xef;" horiz-adv-x="612" 
d="M65 518h482v-518h-136v418h-210v-418h-136v518z" />
    <glyph glyph-name="idieresis" unicode="&#x43f;" horiz-adv-x="612" 
d="M65 518h482v-518h-136v418h-210v-418h-136v518z" />
    <glyph glyph-name="eth" unicode="&#xf0;" 
d="M201 -214h-136v732h119v-90q27 45 69 70q46 28 102 28q101 0 159.5 -69t58.5 -198q0 -140 -74 -210q-60 -57 -150 -57q-55 0 -95 24q-31 19 -54 54l1 -85v-199zM201 259q0 -73 33 -116t82 -43t82 42.5t33 116.5q0 73 -33 116t-82 43t-82 -42.5t-33 -116.5z" />
    <glyph glyph-name="eth" unicode="&#x440;" 
d="M201 -214h-136v732h119v-90q27 45 69 70q46 28 102 28q101 0 159.5 -69t58.5 -198q0 -140 -74 -210q-60 -57 -150 -57q-55 0 -95 24q-31 19 -54 54l1 -85v-199zM201 259q0 -73 33 -116t82 -43t82 42.5t33 116.5q0 73 -33 116t-82 43t-82 -42.5t-33 -116.5z" />
    <glyph glyph-name="ntilde" unicode="&#xf1;" horiz-adv-x="463" 
d="M430 512l-8 -98q-19 8 -39 11t-45 3q-73 0 -117 -49t-44 -122q0 -76 42.5 -121.5t109.5 -45.5q27 0 54 5.5t50 15.5l5 -99q-26 -8 -62.5 -14t-70.5 -6q-136 0 -209 90q-61 75 -61 182q0 104 66 177q77 85 214 85q59 0 115 -14z" />
    <glyph glyph-name="ntilde" unicode="&#x441;" horiz-adv-x="463" 
d="M430 512l-8 -98q-19 8 -39 11t-45 3q-73 0 -117 -49t-44 -122q0 -76 42.5 -121.5t109.5 -45.5q27 0 54 5.5t50 15.5l5 -99q-26 -8 -62.5 -14t-70.5 -6q-136 0 -209 90q-61 75 -61 182q0 104 66 177q77 85 214 85q59 0 115 -14z" />
    <glyph glyph-name="ograve" unicode="&#xf2;" horiz-adv-x="480" 
d="M10 518h460v-100h-162v-418h-136v418h-162v100z" />
    <glyph glyph-name="ograve" unicode="&#x442;" horiz-adv-x="480" 
d="M10 518h460v-100h-162v-418h-136v418h-162v100z" />
    <glyph glyph-name="oacute" unicode="&#xf3;" horiz-adv-x="551" 
d="M3 518h150l97 -286l29 -99h5l32 103l94 282h138l-219 -581q-29 -76 -59 -106q-52 -52 -153 -52q-21 0 -40 3.5t-39 10.5l10 101q27 -11 53 -11q37 0 59 13t35 45l12 30z" />
    <glyph glyph-name="oacute" unicode="&#x443;" horiz-adv-x="551" 
d="M3 518h150l97 -286l29 -99h5l32 103l94 282h138l-219 -581q-29 -76 -59 -106q-52 -52 -153 -52q-21 0 -40 3.5t-39 10.5l10 101q27 -11 53 -11q37 0 59 13t35 45l12 30z" />
    <glyph glyph-name="ocircumflex" unicode="&#xf4;" horiz-adv-x="828" 
d="M346 700h136v-197q23 12 50.5 17.5t46.5 5.5q86 0 144 -59q70 -71 70 -208t-70 -208q-58 -59 -144 -59q-56 0 -97 22v-228h-136v228q-41 -22 -97 -22q-87 0 -144 58q-70 71 -70 209q0 137 70 208q58 59 144 59q24 0 47.5 -4.5t49.5 -18.5v197zM482 405v-292
q16 -10 31 -13.5t34 -3.5q46 0 75 41.5t29 121.5q0 78 -29 120.5t-75 42.5q-18 0 -34 -3.5t-31 -13.5zM346 113v292q-16 10 -31 13.5t-34 3.5q-46 0 -75 -41.5t-29 -121.5q0 -78 29 -120.5t75 -42.5q18 0 34 3.5t31 13.5z" />
    <glyph glyph-name="ocircumflex" unicode="&#x444;" horiz-adv-x="828" 
d="M346 700h136v-197q23 12 50.5 17.5t46.5 5.5q86 0 144 -59q70 -71 70 -208t-70 -208q-58 -59 -144 -59q-56 0 -97 22v-228h-136v228q-41 -22 -97 -22q-87 0 -144 58q-70 71 -70 209q0 137 70 208q58 59 144 59q24 0 47.5 -4.5t49.5 -18.5v197zM482 405v-292
q16 -10 31 -13.5t34 -3.5q46 0 75 41.5t29 121.5q0 78 -29 120.5t-75 42.5q-18 0 -34 -3.5t-31 -13.5zM346 113v292q-16 10 -31 13.5t-34 3.5q-46 0 -75 -41.5t-29 -121.5q0 -78 29 -120.5t75 -42.5q18 0 34 3.5t31 13.5z" />
    <glyph glyph-name="otilde" unicode="&#xf5;" horiz-adv-x="567" 
d="M25 518h162l72 -121l30 -59l34 61l68 119h151l-159 -251l174 -267h-162l-86 138l-31 58l-35 -60l-82 -136h-151l174 267z" />
    <glyph glyph-name="otilde" unicode="&#x445;" horiz-adv-x="567" 
d="M25 518h162l72 -121l30 -59l34 61l68 119h151l-159 -251l174 -267h-162l-86 138l-31 58l-35 -60l-82 -136h-151l174 267z" />
    <glyph glyph-name="odieresis" unicode="&#xf6;" horiz-adv-x="654" 
d="M65 518h136v-418h217v418h136v-418h85v-235h-125v135h-449v518z" />
    <glyph glyph-name="odieresis" unicode="&#x446;" horiz-adv-x="654" 
d="M65 518h136v-418h217v418h136v-418h85v-235h-125v135h-449v518z" />
    <glyph glyph-name="divide" unicode="&#xf7;" horiz-adv-x="570" 
d="M45 518h136v-165q0 -34 12 -50q19 -25 71 -25q36 0 62 4t43 9v227h136v-518h-136v191q-68 -13 -129 -13q-120 0 -165 54q-30 36 -30 104v182z" />
    <glyph glyph-name="divide" unicode="&#x447;" horiz-adv-x="570" 
d="M45 518h136v-165q0 -34 12 -50q19 -25 71 -25q36 0 62 4t43 9v227h136v-518h-136v191q-68 -13 -129 -13q-120 0 -165 54q-30 36 -30 104v182z" />
    <glyph glyph-name="oslash" unicode="&#xf8;" horiz-adv-x="872" 
d="M65 518h136v-418h167v418h136v-418h167v418h136v-518h-742v518z" />
    <glyph glyph-name="oslash" unicode="&#x448;" horiz-adv-x="872" 
d="M65 518h136v-418h167v418h136v-418h167v418h136v-518h-742v518z" />
    <glyph glyph-name="ugrave" unicode="&#xf9;" horiz-adv-x="909" 
d="M65 518h136v-418h167v418h136v-418h167v418h136v-418h87v-235h-125v135h-704v518z" />
    <glyph glyph-name="ugrave" unicode="&#x449;" horiz-adv-x="909" 
d="M65 518h136v-418h167v418h136v-418h167v418h136v-418h87v-235h-125v135h-704v518z" />
    <glyph glyph-name="uacute" unicode="&#xfa;" horiz-adv-x="617" 
d="M5 518h269v-184h105q124 0 179 -59q39 -42 39 -108q0 -70 -46 -114q-55 -53 -162 -53h-251v418h-133v100zM274 244v-154h85q47 0 71.5 21.5t24.5 55.5q0 35 -23 56t-73 21h-85z" />
    <glyph glyph-name="uacute" unicode="&#x44a;" horiz-adv-x="617" 
d="M5 518h269v-184h105q124 0 179 -59q39 -42 39 -108q0 -70 -46 -114q-55 -53 -162 -53h-251v418h-133v100zM274 244v-154h85q47 0 71.5 21.5t24.5 55.5q0 35 -23 56t-73 21h-85z" />
    <glyph glyph-name="ucircumflex" unicode="&#xfb;" horiz-adv-x="805" 
d="M604 518h136v-518h-136v518zM65 518h136v-184h105q102 0 160 -42.5t58 -124.5q0 -70 -46 -114q-55 -53 -162 -53h-251v518zM201 244v-154h85q48 0 74 25q22 21 22 52t-21 52q-26 25 -75 25h-85z" />
    <glyph glyph-name="ucircumflex" unicode="&#x44b;" horiz-adv-x="805" 
d="M604 518h136v-518h-136v518zM65 518h136v-184h105q102 0 160 -42.5t58 -124.5q0 -70 -46 -114q-55 -53 -162 -53h-251v518zM201 244v-154h85q48 0 74 25q22 21 22 52t-21 52q-26 25 -75 25h-85z" />
    <glyph glyph-name="udieresis" unicode="&#xfc;" horiz-adv-x="539" 
d="M60 518h136v-184h105q124 0 179 -59q39 -42 39 -108q0 -70 -46 -114q-55 -53 -162 -53h-251v518zM196 244v-154h85q48 0 74 25q22 21 22 52t-21 52q-26 25 -75 25h-85z" />
    <glyph glyph-name="udieresis" unicode="&#x44c;" horiz-adv-x="539" 
d="M60 518h136v-184h105q124 0 179 -59q39 -42 39 -108q0 -70 -46 -114q-55 -53 -162 -53h-251v518zM196 244v-154h85q48 0 74 25q22 21 22 52t-21 52q-26 25 -75 25h-85z" />
    <glyph glyph-name="yacute" unicode="&#xfd;" horiz-adv-x="488" 
d="M111 222v94h200q-12 61 -67 89q-41 21 -104 21q-29 0 -55 -7q-14 -4 -40 -15l-8 98q28 10 59.5 17t56.5 7q139 0 219.5 -73t80.5 -189q0 -120 -71 -193q-76 -79 -212 -79q-76 0 -145 29l10 100q29 -14 57.5 -21.5t55.5 -7.5q75 0 119 36.5t44 93.5h-200z" />
    <glyph glyph-name="yacute" unicode="&#x44d;" horiz-adv-x="488" 
d="M111 222v94h200q-12 61 -67 89q-41 21 -104 21q-29 0 -55 -7q-14 -4 -40 -15l-8 98q28 10 59.5 17t56.5 7q139 0 219.5 -73t80.5 -189q0 -120 -71 -193q-76 -79 -212 -79q-76 0 -145 29l10 100q29 -14 57.5 -21.5t55.5 -7.5q75 0 119 36.5t44 93.5h-200z" />
    <glyph glyph-name="thorn" unicode="&#xfe;" horiz-adv-x="848" 
d="M201 310h80q10 97 82.5 156.5t182.5 59.5q124 0 197 -75q70 -72 70 -192q0 -119 -71 -193t-196 -74q-108 0 -183 57q-82 62 -82 167h-80v-216h-136v518h136v-208zM420 259q0 -81 35 -125t91 -44q53 0 89 44.5t36 124.5q0 79 -35.5 124t-89.5 45q-55 0 -90.5 -44.5
t-35.5 -124.5z" />
    <glyph glyph-name="thorn" unicode="&#x44e;" horiz-adv-x="848" 
d="M201 310h80q10 97 82.5 156.5t182.5 59.5q124 0 197 -75q70 -72 70 -192q0 -119 -71 -193t-196 -74q-108 0 -183 57q-82 62 -82 167h-80v-216h-136v518h136v-208zM420 259q0 -81 35 -125t91 -44q53 0 89 44.5t36 124.5q0 79 -35.5 124t-89.5 45q-55 0 -90.5 -44.5
t-35.5 -124.5z" />
    <glyph glyph-name="ydieresis" unicode="&#xff;" horiz-adv-x="561" 
d="M496 518v-518h-136v195h-61l-102 -195h-162l130 211q-64 16 -95 64q-24 38 -24 87q0 63 46 107q51 49 136 49h268zM360 428h-90q-36 0 -59 -20t-23 -53q0 -30 23.5 -51.5t58.5 -21.5h90v146z" />
    <glyph glyph-name="ydieresis" unicode="&#x44f;" horiz-adv-x="561" 
d="M496 518v-518h-136v195h-61l-102 -195h-162l130 211q-64 16 -95 64q-24 38 -24 87q0 63 46 107q51 49 136 49h268zM360 428h-90q-36 0 -59 -20t-23 -53q0 -30 23.5 -51.5t58.5 -21.5h90v146z" />
  </font>
</defs>
</svg>
